G04 Layer_Color=255*
%FSLAX25Y25*%
%MOIN*%
G70*
G01*
G75*
%ADD11O,0.03937X0.07874*%
%ADD12O,0.03937X0.07874*%
%ADD13R,0.05906X0.05906*%
%ADD14C,0.05906*%
%ADD15R,0.05906X0.05906*%
%ADD16C,0.04724*%
%ADD17R,0.07284X0.07284*%
%ADD18C,0.07284*%
%ADD19O,0.07874X0.06299*%
%ADD20R,0.07874X0.06299*%
%ADD21C,0.05512*%
D11*
X290000Y325000D02*
D03*
X280000D02*
D03*
X290000Y295000D02*
D03*
X280000D02*
D03*
D12*
X285000Y325000D02*
D03*
Y295000D02*
D03*
D13*
X271024Y272500D02*
D03*
Y252500D02*
D03*
X270000Y475000D02*
D03*
D14*
X298976Y272500D02*
D03*
Y252500D02*
D03*
X187500Y211024D02*
D03*
X287500Y222500D02*
D03*
Y212500D02*
D03*
Y202500D02*
D03*
Y192500D02*
D03*
Y182500D02*
D03*
Y172500D02*
D03*
Y162500D02*
D03*
X300000Y475000D02*
D03*
X290000D02*
D03*
X280000D02*
D03*
D15*
X187500Y238976D02*
D03*
X287500Y232500D02*
D03*
D16*
X120000Y242500D02*
D03*
Y212500D02*
D03*
X172500Y305000D02*
D03*
Y275000D02*
D03*
X140000Y180000D02*
D03*
X170000D02*
D03*
X120000Y305000D02*
D03*
Y275000D02*
D03*
X172500Y372500D02*
D03*
Y342500D02*
D03*
X120000Y372500D02*
D03*
Y342500D02*
D03*
D17*
X227500Y480000D02*
D03*
X177500D02*
D03*
X130000D02*
D03*
D18*
X227500Y460000D02*
D03*
X177500D02*
D03*
X130000D02*
D03*
D19*
X242539Y190748D02*
D03*
Y200748D02*
D03*
Y210748D02*
D03*
Y220748D02*
D03*
Y230748D02*
D03*
Y240748D02*
D03*
Y250748D02*
D03*
Y260748D02*
D03*
Y270748D02*
D03*
Y280748D02*
D03*
Y290748D02*
D03*
Y300748D02*
D03*
Y310748D02*
D03*
Y320748D02*
D03*
X212539Y190748D02*
D03*
Y200748D02*
D03*
Y210748D02*
D03*
Y220748D02*
D03*
Y230748D02*
D03*
Y240748D02*
D03*
Y250748D02*
D03*
Y260748D02*
D03*
Y270748D02*
D03*
Y280748D02*
D03*
Y290748D02*
D03*
Y300748D02*
D03*
Y310748D02*
D03*
D20*
X212500Y320000D02*
D03*
D21*
Y400000D02*
D03*
Y430000D02*
D03*
X187500D02*
D03*
Y400000D02*
D03*
X162500Y430000D02*
D03*
Y400000D02*
D03*
X137500D02*
D03*
Y430000D02*
D03*
X237500D02*
D03*
Y400000D02*
D03*
X287500D02*
D03*
Y430000D02*
D03*
X262500D02*
D03*
Y400000D02*
D03*
X112500D02*
D03*
Y430000D02*
D03*
X287500Y350000D02*
D03*
Y380000D02*
D03*
X262500Y350000D02*
D03*
Y380000D02*
D03*
X237500Y350000D02*
D03*
Y380000D02*
D03*
M02*
