G04 Layer_Color=2752767*
%FSLAX25Y25*%
%MOIN*%
G70*
G01*
G75*
%ADD39C,0.00500*%
%ADD40C,0.00667*%
D39*
X288000Y323000D02*
Y327000D01*
X292000D01*
Y323000D01*
X288000D01*
X283000D02*
Y327000D01*
X287000D01*
Y323000D01*
X283000D01*
X278000D02*
Y327000D01*
X282000D01*
Y323000D01*
X278000D01*
X288000Y293000D02*
Y297000D01*
X292000D01*
Y293000D01*
X288000D01*
X283000D02*
Y297000D01*
X287000D01*
Y293000D01*
X283000D01*
X278000D02*
Y297000D01*
X282000D01*
Y293000D01*
X278000D01*
X269024Y270500D02*
Y274500D01*
X273024D01*
Y270500D01*
X269024D01*
X296976D02*
Y274500D01*
X300976D01*
Y270500D01*
X296976D01*
X269024Y250500D02*
Y254500D01*
X273024D01*
Y250500D01*
X269024D01*
X296976D02*
Y254500D01*
X300976D01*
Y250500D01*
X296976D01*
X185500Y236976D02*
Y240976D01*
X189500D01*
Y236976D01*
X185500D01*
Y209024D02*
Y213024D01*
X189500D01*
Y209024D01*
X185500D01*
X227500Y478000D02*
X225500Y482000D01*
X229500D01*
X227500Y478000D01*
Y458000D02*
X225500Y462000D01*
X229500D01*
X227500Y458000D01*
X177500Y478000D02*
X175500Y482000D01*
X179500D01*
X177500Y478000D01*
Y458000D02*
X175500Y462000D01*
X179500D01*
X177500Y458000D01*
X130000Y478000D02*
X128000Y482000D01*
X132000D01*
X130000Y478000D01*
Y458000D02*
X128000Y462000D01*
X132000D01*
X130000Y458000D01*
X285500Y230500D02*
Y234500D01*
X289500D01*
Y230500D01*
X285500D01*
Y220500D02*
Y224500D01*
X289500D01*
Y220500D01*
X285500D01*
Y210500D02*
Y214500D01*
X289500D01*
Y210500D01*
X285500D01*
Y200500D02*
Y204500D01*
X289500D01*
Y200500D01*
X285500D01*
Y190500D02*
Y194500D01*
X289500D01*
Y190500D01*
X285500D01*
Y180500D02*
Y184500D01*
X289500D01*
Y180500D01*
X285500D01*
Y170500D02*
Y174500D01*
X289500D01*
Y170500D01*
X285500D01*
Y160500D02*
Y164500D01*
X289500D01*
Y160500D01*
X285500D01*
X298000Y473000D02*
Y477000D01*
X302000D01*
Y473000D01*
X298000D01*
X288000D02*
Y477000D01*
X292000D01*
Y473000D01*
X288000D01*
X278000D02*
Y477000D01*
X282000D01*
Y473000D01*
X278000D01*
X268000D02*
Y477000D01*
X272000D01*
Y473000D01*
X268000D01*
X242539Y188748D02*
X240539Y192748D01*
X244539D01*
X242539Y188748D01*
Y198748D02*
X240539Y202748D01*
X244539D01*
X242539Y198748D01*
Y208748D02*
X240539Y212748D01*
X244539D01*
X242539Y208748D01*
Y218748D02*
X240539Y222748D01*
X244539D01*
X242539Y218748D01*
Y228748D02*
X240539Y232748D01*
X244539D01*
X242539Y228748D01*
Y238748D02*
X240539Y242748D01*
X244539D01*
X242539Y238748D01*
Y248748D02*
X240539Y252748D01*
X244539D01*
X242539Y248748D01*
Y258748D02*
X240539Y262748D01*
X244539D01*
X242539Y258748D01*
Y268748D02*
X240539Y272748D01*
X244539D01*
X242539Y268748D01*
Y278748D02*
X240539Y282748D01*
X244539D01*
X242539Y278748D01*
Y288748D02*
X240539Y292748D01*
X244539D01*
X242539Y288748D01*
Y298748D02*
X240539Y302748D01*
X244539D01*
X242539Y298748D01*
Y308748D02*
X240539Y312748D01*
X244539D01*
X242539Y308748D01*
Y318748D02*
X240539Y322748D01*
X244539D01*
X242539Y318748D01*
X212539Y188748D02*
X210539Y192748D01*
X214539D01*
X212539Y188748D01*
Y198748D02*
X210539Y202748D01*
X214539D01*
X212539Y198748D01*
Y208748D02*
X210539Y212748D01*
X214539D01*
X212539Y208748D01*
Y218748D02*
X210539Y222748D01*
X214539D01*
X212539Y218748D01*
Y228748D02*
X210539Y232748D01*
X214539D01*
X212539Y228748D01*
Y238748D02*
X210539Y242748D01*
X214539D01*
X212539Y238748D01*
Y248748D02*
X210539Y252748D01*
X214539D01*
X212539Y248748D01*
Y258748D02*
X210539Y262748D01*
X214539D01*
X212539Y258748D01*
Y268748D02*
X210539Y272748D01*
X214539D01*
X212539Y268748D01*
Y278748D02*
X210539Y282748D01*
X214539D01*
X212539Y278748D01*
Y288748D02*
X210539Y292748D01*
X214539D01*
X212539Y288748D01*
Y298748D02*
X210539Y302748D01*
X214539D01*
X212539Y298748D01*
Y308748D02*
X210539Y312748D01*
X214539D01*
X212539Y308748D01*
X212500Y318000D02*
X210500Y322000D01*
X214500D01*
X212500Y318000D01*
Y398000D02*
X213500Y399000D01*
X214500D01*
X213500Y400000D01*
X214500Y401000D01*
X213500D01*
X212500Y402000D01*
X211500Y401000D01*
X210500D01*
X211500Y400000D01*
X210500Y399000D01*
X211500D01*
X212500Y398000D01*
Y428000D02*
X213500Y429000D01*
X214500D01*
X213500Y430000D01*
X214500Y431000D01*
X213500D01*
X212500Y432000D01*
X211500Y431000D01*
X210500D01*
X211500Y430000D01*
X210500Y429000D01*
X211500D01*
X212500Y428000D01*
X187500D02*
X188500Y429000D01*
X189500D01*
X188500Y430000D01*
X189500Y431000D01*
X188500D01*
X187500Y432000D01*
X186500Y431000D01*
X185500D01*
X186500Y430000D01*
X185500Y429000D01*
X186500D01*
X187500Y428000D01*
Y398000D02*
X188500Y399000D01*
X189500D01*
X188500Y400000D01*
X189500Y401000D01*
X188500D01*
X187500Y402000D01*
X186500Y401000D01*
X185500D01*
X186500Y400000D01*
X185500Y399000D01*
X186500D01*
X187500Y398000D01*
X162500Y428000D02*
X163500Y429000D01*
X164500D01*
X163500Y430000D01*
X164500Y431000D01*
X163500D01*
X162500Y432000D01*
X161500Y431000D01*
X160500D01*
X161500Y430000D01*
X160500Y429000D01*
X161500D01*
X162500Y428000D01*
Y398000D02*
X163500Y399000D01*
X164500D01*
X163500Y400000D01*
X164500Y401000D01*
X163500D01*
X162500Y402000D01*
X161500Y401000D01*
X160500D01*
X161500Y400000D01*
X160500Y399000D01*
X161500D01*
X162500Y398000D01*
X137500D02*
X138500Y399000D01*
X139500D01*
X138500Y400000D01*
X139500Y401000D01*
X138500D01*
X137500Y402000D01*
X136500Y401000D01*
X135500D01*
X136500Y400000D01*
X135500Y399000D01*
X136500D01*
X137500Y398000D01*
Y428000D02*
X138500Y429000D01*
X139500D01*
X138500Y430000D01*
X139500Y431000D01*
X138500D01*
X137500Y432000D01*
X136500Y431000D01*
X135500D01*
X136500Y430000D01*
X135500Y429000D01*
X136500D01*
X137500Y428000D01*
X237500D02*
X238500Y429000D01*
X239500D01*
X238500Y430000D01*
X239500Y431000D01*
X238500D01*
X237500Y432000D01*
X236500Y431000D01*
X235500D01*
X236500Y430000D01*
X235500Y429000D01*
X236500D01*
X237500Y428000D01*
Y398000D02*
X238500Y399000D01*
X239500D01*
X238500Y400000D01*
X239500Y401000D01*
X238500D01*
X237500Y402000D01*
X236500Y401000D01*
X235500D01*
X236500Y400000D01*
X235500Y399000D01*
X236500D01*
X237500Y398000D01*
X287500D02*
X288500Y399000D01*
X289500D01*
X288500Y400000D01*
X289500Y401000D01*
X288500D01*
X287500Y402000D01*
X286500Y401000D01*
X285500D01*
X286500Y400000D01*
X285500Y399000D01*
X286500D01*
X287500Y398000D01*
Y428000D02*
X288500Y429000D01*
X289500D01*
X288500Y430000D01*
X289500Y431000D01*
X288500D01*
X287500Y432000D01*
X286500Y431000D01*
X285500D01*
X286500Y430000D01*
X285500Y429000D01*
X286500D01*
X287500Y428000D01*
X262500D02*
X263500Y429000D01*
X264500D01*
X263500Y430000D01*
X264500Y431000D01*
X263500D01*
X262500Y432000D01*
X261500Y431000D01*
X260500D01*
X261500Y430000D01*
X260500Y429000D01*
X261500D01*
X262500Y428000D01*
Y398000D02*
X263500Y399000D01*
X264500D01*
X263500Y400000D01*
X264500Y401000D01*
X263500D01*
X262500Y402000D01*
X261500Y401000D01*
X260500D01*
X261500Y400000D01*
X260500Y399000D01*
X261500D01*
X262500Y398000D01*
X112500D02*
X113500Y399000D01*
X114500D01*
X113500Y400000D01*
X114500Y401000D01*
X113500D01*
X112500Y402000D01*
X111500Y401000D01*
X110500D01*
X111500Y400000D01*
X110500Y399000D01*
X111500D01*
X112500Y398000D01*
Y428000D02*
X113500Y429000D01*
X114500D01*
X113500Y430000D01*
X114500Y431000D01*
X113500D01*
X112500Y432000D01*
X111500Y431000D01*
X110500D01*
X111500Y430000D01*
X110500Y429000D01*
X111500D01*
X112500Y428000D01*
X287500Y348000D02*
X288500Y349000D01*
X289500D01*
X288500Y350000D01*
X289500Y351000D01*
X288500D01*
X287500Y352000D01*
X286500Y351000D01*
X285500D01*
X286500Y350000D01*
X285500Y349000D01*
X286500D01*
X287500Y348000D01*
Y378000D02*
X288500Y379000D01*
X289500D01*
X288500Y380000D01*
X289500Y381000D01*
X288500D01*
X287500Y382000D01*
X286500Y381000D01*
X285500D01*
X286500Y380000D01*
X285500Y379000D01*
X286500D01*
X287500Y378000D01*
X262500Y348000D02*
X263500Y349000D01*
X264500D01*
X263500Y350000D01*
X264500Y351000D01*
X263500D01*
X262500Y352000D01*
X261500Y351000D01*
X260500D01*
X261500Y350000D01*
X260500Y349000D01*
X261500D01*
X262500Y348000D01*
Y378000D02*
X263500Y379000D01*
X264500D01*
X263500Y380000D01*
X264500Y381000D01*
X263500D01*
X262500Y382000D01*
X261500Y381000D01*
X260500D01*
X261500Y380000D01*
X260500Y379000D01*
X261500D01*
X262500Y378000D01*
X237500Y348000D02*
X238500Y349000D01*
X239500D01*
X238500Y350000D01*
X239500Y351000D01*
X238500D01*
X237500Y352000D01*
X236500Y351000D01*
X235500D01*
X236500Y350000D01*
X235500Y349000D01*
X236500D01*
X237500Y348000D01*
Y378000D02*
X238500Y379000D01*
X239500D01*
X238500Y380000D01*
X239500Y381000D01*
X238500D01*
X237500Y382000D01*
X236500Y381000D01*
X235500D01*
X236500Y380000D01*
X235500Y379000D01*
X236500D01*
X237500Y378000D01*
D40*
X122000Y242500D02*
X121771Y243429D01*
X121136Y244146D01*
X120241Y244485D01*
X119291Y244370D01*
X118503Y243826D01*
X118058Y242979D01*
Y242021D01*
X118503Y241174D01*
X119291Y240630D01*
X120241Y240515D01*
X121136Y240854D01*
X121771Y241571D01*
X122000Y242500D01*
Y212500D02*
X121771Y213429D01*
X121136Y214146D01*
X120241Y214485D01*
X119291Y214370D01*
X118503Y213826D01*
X118058Y212979D01*
Y212021D01*
X118503Y211174D01*
X119291Y210630D01*
X120241Y210515D01*
X121136Y210854D01*
X121771Y211571D01*
X122000Y212500D01*
X174500Y305000D02*
X174271Y305929D01*
X173636Y306646D01*
X172741Y306985D01*
X171791Y306870D01*
X171003Y306326D01*
X170558Y305479D01*
Y304521D01*
X171003Y303674D01*
X171791Y303130D01*
X172741Y303015D01*
X173636Y303354D01*
X174271Y304071D01*
X174500Y305000D01*
Y275000D02*
X174271Y275929D01*
X173636Y276646D01*
X172741Y276985D01*
X171791Y276870D01*
X171003Y276326D01*
X170558Y275479D01*
Y274521D01*
X171003Y273674D01*
X171791Y273130D01*
X172741Y273015D01*
X173636Y273354D01*
X174271Y274071D01*
X174500Y275000D01*
X142000Y180000D02*
X141771Y180929D01*
X141136Y181646D01*
X140241Y181985D01*
X139291Y181870D01*
X138503Y181326D01*
X138058Y180479D01*
Y179521D01*
X138503Y178674D01*
X139291Y178130D01*
X140241Y178015D01*
X141136Y178354D01*
X141771Y179071D01*
X142000Y180000D01*
X172000D02*
X171771Y180929D01*
X171136Y181646D01*
X170241Y181985D01*
X169291Y181870D01*
X168503Y181326D01*
X168058Y180479D01*
Y179521D01*
X168503Y178674D01*
X169291Y178130D01*
X170241Y178015D01*
X171136Y178354D01*
X171771Y179071D01*
X172000Y180000D01*
X122000Y305000D02*
X121771Y305929D01*
X121136Y306646D01*
X120241Y306985D01*
X119291Y306870D01*
X118503Y306326D01*
X118058Y305479D01*
Y304521D01*
X118503Y303674D01*
X119291Y303130D01*
X120241Y303015D01*
X121136Y303354D01*
X121771Y304071D01*
X122000Y305000D01*
Y275000D02*
X121771Y275929D01*
X121136Y276646D01*
X120241Y276985D01*
X119291Y276870D01*
X118503Y276326D01*
X118058Y275479D01*
Y274521D01*
X118503Y273674D01*
X119291Y273130D01*
X120241Y273015D01*
X121136Y273354D01*
X121771Y274071D01*
X122000Y275000D01*
X174500Y372500D02*
X174271Y373429D01*
X173636Y374146D01*
X172741Y374485D01*
X171791Y374370D01*
X171003Y373826D01*
X170558Y372979D01*
Y372021D01*
X171003Y371174D01*
X171791Y370630D01*
X172741Y370515D01*
X173636Y370854D01*
X174271Y371571D01*
X174500Y372500D01*
Y342500D02*
X174271Y343429D01*
X173636Y344146D01*
X172741Y344485D01*
X171791Y344370D01*
X171003Y343826D01*
X170558Y342979D01*
Y342021D01*
X171003Y341174D01*
X171791Y340630D01*
X172741Y340515D01*
X173636Y340854D01*
X174271Y341571D01*
X174500Y342500D01*
X122000Y372500D02*
X121771Y373429D01*
X121136Y374146D01*
X120241Y374485D01*
X119291Y374370D01*
X118503Y373826D01*
X118058Y372979D01*
Y372021D01*
X118503Y371174D01*
X119291Y370630D01*
X120241Y370515D01*
X121136Y370854D01*
X121771Y371571D01*
X122000Y372500D01*
Y342500D02*
X121771Y343429D01*
X121136Y344146D01*
X120241Y344485D01*
X119291Y344370D01*
X118503Y343826D01*
X118058Y342979D01*
Y342021D01*
X118503Y341174D01*
X119291Y340630D01*
X120241Y340515D01*
X121136Y340854D01*
X121771Y341571D01*
X122000Y342500D01*
M02*
