G04 Layer_Physical_Order=1*
G04 Layer_Color=255*
%FSLAX25Y25*%
%MOIN*%
G70*
G01*
G75*
%ADD10C,0.01000*%
%ADD11O,0.03937X0.07874*%
%ADD12O,0.03937X0.07874*%
%ADD13R,0.05906X0.05906*%
%ADD14C,0.05906*%
%ADD15R,0.05906X0.05906*%
%ADD16C,0.04724*%
%ADD17R,0.07284X0.07284*%
%ADD18C,0.07284*%
%ADD19O,0.07874X0.06299*%
%ADD20R,0.07874X0.06299*%
%ADD21C,0.05512*%
G36*
X107500Y493471D02*
X305000D01*
Y493469D01*
X305371Y493395D01*
X305685Y493185D01*
X305895Y492871D01*
X305969Y492500D01*
X305971D01*
Y155000D01*
X305976Y154972D01*
X305861Y154099D01*
X305514Y153260D01*
X304961Y152539D01*
X304881Y152478D01*
X105119D01*
X105039Y152539D01*
X104486Y153260D01*
X104139Y154099D01*
X104024Y154972D01*
X104029Y155000D01*
Y383868D01*
X104447Y491645D01*
X104486Y491740D01*
X105039Y492461D01*
X105760Y493014D01*
X106599Y493361D01*
X107472Y493476D01*
X107500Y493471D01*
D02*
G37*
%LPC*%
G36*
X243327Y264933D02*
X241752D01*
X240669Y264791D01*
X239659Y264373D01*
X238792Y263707D01*
X238127Y262841D01*
X237709Y261831D01*
X237567Y260748D01*
X237709Y259665D01*
X238127Y258655D01*
X238792Y257788D01*
X239659Y257123D01*
X240669Y256705D01*
X241752Y256563D01*
X243327D01*
X244410Y256705D01*
X245420Y257123D01*
X246286Y257788D01*
X246952Y258655D01*
X247370Y259665D01*
X247512Y260748D01*
X247370Y261831D01*
X246952Y262841D01*
X246286Y263707D01*
X245420Y264373D01*
X244410Y264791D01*
X243327Y264933D01*
D02*
G37*
G36*
Y254933D02*
X241752D01*
X240669Y254791D01*
X239659Y254373D01*
X238792Y253708D01*
X238127Y252841D01*
X237709Y251831D01*
X237567Y250748D01*
X237709Y249665D01*
X238127Y248655D01*
X238792Y247789D01*
X239659Y247123D01*
X240669Y246705D01*
X241752Y246563D01*
X243327D01*
X244410Y246705D01*
X245420Y247123D01*
X246286Y247789D01*
X246952Y248655D01*
X247370Y249665D01*
X247512Y250748D01*
X247370Y251831D01*
X246952Y252841D01*
X246286Y253708D01*
X245420Y254373D01*
X244410Y254791D01*
X243327Y254933D01*
D02*
G37*
G36*
X287500Y226487D02*
X286468Y226351D01*
X285507Y225953D01*
X284681Y225319D01*
X284047Y224493D01*
X283649Y223532D01*
X283513Y222500D01*
X283649Y221468D01*
X284047Y220507D01*
X284681Y219681D01*
X285507Y219047D01*
X286468Y218649D01*
X287500Y218513D01*
X288532Y218649D01*
X289493Y219047D01*
X290319Y219681D01*
X290953Y220507D01*
X291351Y221468D01*
X291487Y222500D01*
X291351Y223532D01*
X290953Y224493D01*
X290319Y225319D01*
X289493Y225953D01*
X288532Y226351D01*
X287500Y226487D01*
D02*
G37*
G36*
X262500Y353788D02*
X261520Y353659D01*
X260606Y353281D01*
X259821Y352679D01*
X259219Y351894D01*
X258841Y350980D01*
X258712Y350000D01*
X258841Y349020D01*
X259219Y348106D01*
X259821Y347321D01*
X260606Y346719D01*
X260971Y346568D01*
Y298433D01*
X249766Y287229D01*
X246336D01*
X246175Y287703D01*
X246286Y287789D01*
X246952Y288655D01*
X247370Y289665D01*
X247512Y290748D01*
X247370Y291831D01*
X246952Y292841D01*
X246286Y293707D01*
X245420Y294373D01*
X244410Y294791D01*
X243327Y294933D01*
X241752D01*
X240669Y294791D01*
X239659Y294373D01*
X238792Y293707D01*
X238127Y292841D01*
X237709Y291831D01*
X237567Y290748D01*
X237709Y289665D01*
X238127Y288655D01*
X238792Y287789D01*
X238904Y287703D01*
X238743Y287229D01*
X218500D01*
X217915Y287113D01*
X217419Y286781D01*
X215130Y284493D01*
X214410Y284791D01*
X213327Y284933D01*
X211752D01*
X210669Y284791D01*
X209659Y284373D01*
X208792Y283707D01*
X208127Y282841D01*
X207709Y281831D01*
X207567Y280748D01*
X207709Y279665D01*
X208127Y278655D01*
X208792Y277788D01*
X209659Y277123D01*
X210669Y276705D01*
X211752Y276563D01*
X213327D01*
X214410Y276705D01*
X215420Y277123D01*
X216286Y277788D01*
X216951Y278655D01*
X217370Y279665D01*
X217512Y280748D01*
X217370Y281831D01*
X217201Y282238D01*
X219133Y284171D01*
X238635D01*
X238714Y283939D01*
X238764Y283671D01*
X238127Y282841D01*
X237709Y281831D01*
X237567Y280748D01*
X237709Y279665D01*
X238127Y278655D01*
X238792Y277788D01*
X239659Y277123D01*
X240669Y276705D01*
X241752Y276563D01*
X243327D01*
X244410Y276705D01*
X245420Y277123D01*
X246286Y277788D01*
X246952Y278655D01*
X247370Y279665D01*
X247512Y280748D01*
X247370Y281831D01*
X246952Y282841D01*
X246315Y283671D01*
X246365Y283939D01*
X246444Y284171D01*
X250400D01*
X250985Y284287D01*
X251481Y284619D01*
X263581Y296719D01*
X263913Y297215D01*
X264029Y297800D01*
Y346568D01*
X264394Y346719D01*
X265179Y347321D01*
X265781Y348106D01*
X266159Y349020D01*
X266288Y350000D01*
X266159Y350980D01*
X265781Y351894D01*
X265179Y352679D01*
X264394Y353281D01*
X263480Y353659D01*
X262500Y353788D01*
D02*
G37*
G36*
X243327Y274933D02*
X241752D01*
X240669Y274791D01*
X239659Y274373D01*
X238792Y273708D01*
X238127Y272841D01*
X237709Y271831D01*
X237567Y270748D01*
X237709Y269665D01*
X238127Y268655D01*
X238792Y267789D01*
X239659Y267123D01*
X240669Y266705D01*
X241752Y266563D01*
X243327D01*
X244410Y266705D01*
X245420Y267123D01*
X246286Y267789D01*
X246952Y268655D01*
X247370Y269665D01*
X247512Y270748D01*
X247370Y271831D01*
X246952Y272841D01*
X246286Y273708D01*
X245420Y274373D01*
X244410Y274791D01*
X243327Y274933D01*
D02*
G37*
G36*
X213327D02*
X211752D01*
X210669Y274791D01*
X209659Y274373D01*
X208792Y273708D01*
X208127Y272841D01*
X207709Y271831D01*
X207567Y270748D01*
X207709Y269665D01*
X208127Y268655D01*
X208792Y267789D01*
X209659Y267123D01*
X210669Y266705D01*
X211752Y266563D01*
X213327D01*
X214410Y266705D01*
X215420Y267123D01*
X216286Y267789D01*
X216951Y268655D01*
X217370Y269665D01*
X217512Y270748D01*
X217370Y271831D01*
X216951Y272841D01*
X216286Y273708D01*
X215420Y274373D01*
X214410Y274791D01*
X213327Y274933D01*
D02*
G37*
G36*
X287500Y196487D02*
X286468Y196351D01*
X285507Y195953D01*
X284681Y195319D01*
X284047Y194493D01*
X283649Y193532D01*
X283513Y192500D01*
X283649Y191468D01*
X284047Y190507D01*
X284681Y189681D01*
X285507Y189047D01*
X286468Y188649D01*
X287500Y188513D01*
X288532Y188649D01*
X289493Y189047D01*
X290319Y189681D01*
X290953Y190507D01*
X291351Y191468D01*
X291487Y192500D01*
X291351Y193532D01*
X290953Y194493D01*
X290319Y195319D01*
X289493Y195953D01*
X288532Y196351D01*
X287500Y196487D01*
D02*
G37*
G36*
Y186487D02*
X286468Y186351D01*
X285507Y185953D01*
X284681Y185319D01*
X284047Y184493D01*
X283649Y183532D01*
X283513Y182500D01*
X283649Y181468D01*
X284047Y180507D01*
X284681Y179681D01*
X285507Y179047D01*
X286468Y178649D01*
X287500Y178513D01*
X288532Y178649D01*
X289493Y179047D01*
X290319Y179681D01*
X290953Y180507D01*
X291351Y181468D01*
X291487Y182500D01*
X291351Y183532D01*
X290953Y184493D01*
X290319Y185319D01*
X289493Y185953D01*
X288532Y186351D01*
X287500Y186487D01*
D02*
G37*
G36*
X191453Y242929D02*
X183547D01*
Y237187D01*
X168919Y222558D01*
X168587Y222062D01*
X168471Y221476D01*
Y183006D01*
X168304Y182937D01*
X167602Y182398D01*
X167063Y181696D01*
X166724Y180878D01*
X166609Y180000D01*
X166724Y179122D01*
X167063Y178304D01*
X167602Y177602D01*
X168304Y177063D01*
X169122Y176724D01*
X170000Y176609D01*
X170878Y176724D01*
X171696Y177063D01*
X172398Y177602D01*
X172937Y178304D01*
X173276Y179122D01*
X173391Y180000D01*
X173276Y180878D01*
X172937Y181696D01*
X172398Y182398D01*
X171696Y182937D01*
X171529Y183006D01*
Y220843D01*
X185710Y235024D01*
X191453D01*
Y242929D01*
D02*
G37*
G36*
X287500Y216487D02*
X286468Y216351D01*
X285507Y215953D01*
X284681Y215319D01*
X284047Y214493D01*
X283649Y213532D01*
X283513Y212500D01*
X283649Y211468D01*
X284047Y210507D01*
X284681Y209681D01*
X285507Y209047D01*
X286468Y208649D01*
X287500Y208513D01*
X288532Y208649D01*
X289493Y209047D01*
X290319Y209681D01*
X290953Y210507D01*
X291351Y211468D01*
X291487Y212500D01*
X291351Y213532D01*
X290953Y214493D01*
X290319Y215319D01*
X289493Y215953D01*
X288532Y216351D01*
X287500Y216487D01*
D02*
G37*
G36*
X187500Y215010D02*
X186468Y214875D01*
X185507Y214476D01*
X184681Y213843D01*
X184047Y213017D01*
X183649Y212055D01*
X183513Y211024D01*
X183649Y209992D01*
X184047Y209030D01*
X184681Y208205D01*
X185507Y207571D01*
X186468Y207173D01*
X187500Y207037D01*
X188532Y207173D01*
X189493Y207571D01*
X190319Y208205D01*
X190953Y209030D01*
X191351Y209992D01*
X191487Y211024D01*
X191351Y212055D01*
X190953Y213017D01*
X190319Y213843D01*
X189493Y214476D01*
X188532Y214875D01*
X187500Y215010D01*
D02*
G37*
G36*
X287500Y206487D02*
X286468Y206351D01*
X285507Y205953D01*
X284681Y205319D01*
X284047Y204493D01*
X283649Y203532D01*
X283513Y202500D01*
X283649Y201468D01*
X284047Y200507D01*
X284681Y199681D01*
X285507Y199047D01*
X286468Y198649D01*
X287500Y198513D01*
X288532Y198649D01*
X289493Y199047D01*
X290319Y199681D01*
X290953Y200507D01*
X291351Y201468D01*
X291487Y202500D01*
X291351Y203532D01*
X290953Y204493D01*
X290319Y205319D01*
X289493Y205953D01*
X288532Y206351D01*
X287500Y206487D01*
D02*
G37*
G36*
X162500Y433788D02*
X161520Y433659D01*
X160606Y433281D01*
X159821Y432679D01*
X159219Y431894D01*
X158841Y430980D01*
X158712Y430000D01*
X158841Y429019D01*
X159219Y428106D01*
X159821Y427321D01*
X160606Y426719D01*
X161520Y426341D01*
X162500Y426212D01*
X163480Y426341D01*
X163845Y426492D01*
X167071Y423267D01*
Y346400D01*
X167187Y345815D01*
X167519Y345319D01*
X169293Y343544D01*
X169224Y343378D01*
X169109Y342500D01*
X169224Y341622D01*
X169563Y340804D01*
X170102Y340102D01*
X170804Y339563D01*
X170971Y339494D01*
Y308006D01*
X170804Y307937D01*
X170102Y307398D01*
X169563Y306696D01*
X169224Y305878D01*
X169109Y305000D01*
X169224Y304122D01*
X169563Y303304D01*
X170102Y302602D01*
X170804Y302063D01*
X171622Y301724D01*
X172500Y301609D01*
X173378Y301724D01*
X173544Y301793D01*
X178371Y296967D01*
Y288245D01*
X177871Y288195D01*
X177813Y288485D01*
X177481Y288981D01*
X164029Y302433D01*
Y396568D01*
X164394Y396719D01*
X165179Y397321D01*
X165781Y398106D01*
X166159Y399020D01*
X166288Y400000D01*
X166159Y400981D01*
X165781Y401894D01*
X165179Y402679D01*
X164394Y403281D01*
X163480Y403659D01*
X162500Y403788D01*
X161520Y403659D01*
X160606Y403281D01*
X159821Y402679D01*
X159219Y401894D01*
X158841Y400981D01*
X158712Y400000D01*
X158841Y399020D01*
X159219Y398106D01*
X159821Y397321D01*
X160606Y396719D01*
X160971Y396568D01*
Y301800D01*
X161087Y301215D01*
X161419Y300719D01*
X174871Y287266D01*
Y263700D01*
X174987Y263115D01*
X175319Y262619D01*
X202471Y235467D01*
Y191100D01*
X202587Y190515D01*
X202919Y190019D01*
X206019Y186919D01*
X208319Y184619D01*
X208815Y184287D01*
X209400Y184171D01*
X246000D01*
X246585Y184287D01*
X247081Y184619D01*
X276581Y214119D01*
X276913Y214615D01*
X277029Y215200D01*
Y268024D01*
X276913Y268609D01*
X276581Y269105D01*
X274976Y270710D01*
Y276453D01*
X267071D01*
Y268547D01*
X272814D01*
X273971Y267390D01*
Y256453D01*
X267071D01*
Y250710D01*
X253590Y237229D01*
X236633D01*
X217081Y256781D01*
X216585Y257113D01*
X216000Y257229D01*
X208134D01*
X204729Y260633D01*
Y290266D01*
X208135Y293672D01*
X208512Y293342D01*
X208127Y292841D01*
X207709Y291831D01*
X207567Y290748D01*
X207709Y289665D01*
X208127Y288655D01*
X208792Y287789D01*
X209659Y287123D01*
X210669Y286705D01*
X211752Y286563D01*
X213327D01*
X214410Y286705D01*
X215420Y287123D01*
X216286Y287789D01*
X216951Y288655D01*
X217185Y289219D01*
X221348D01*
X221933Y289335D01*
X222429Y289667D01*
X227681Y294919D01*
X228013Y295415D01*
X228129Y296000D01*
Y338467D01*
X236155Y346492D01*
X236520Y346341D01*
X237500Y346212D01*
X238480Y346341D01*
X239394Y346719D01*
X240179Y347321D01*
X240781Y348106D01*
X241159Y349020D01*
X241288Y350000D01*
X241159Y350980D01*
X240781Y351894D01*
X240179Y352679D01*
X239394Y353281D01*
X238480Y353659D01*
X237500Y353788D01*
X236520Y353659D01*
X235606Y353281D01*
X234821Y352679D01*
X234219Y351894D01*
X233841Y350980D01*
X233712Y350000D01*
X233841Y349020D01*
X233992Y348655D01*
X225519Y340181D01*
X225187Y339685D01*
X225071Y339100D01*
Y296634D01*
X220714Y292277D01*
X217185D01*
X216951Y292841D01*
X216286Y293707D01*
X216276Y293716D01*
X216400Y294250D01*
X216585Y294287D01*
X217081Y294619D01*
X219081Y296619D01*
X219413Y297115D01*
X219529Y297700D01*
Y394500D01*
X219413Y395085D01*
X219081Y395581D01*
X216008Y398655D01*
X216159Y399020D01*
X216288Y400000D01*
X216159Y400981D01*
X215781Y401894D01*
X215179Y402679D01*
X214394Y403281D01*
X213480Y403659D01*
X212500Y403788D01*
X211520Y403659D01*
X210606Y403281D01*
X209821Y402679D01*
X209219Y401894D01*
X208841Y400981D01*
X208712Y400000D01*
X208841Y399020D01*
X209219Y398106D01*
X209821Y397321D01*
X210606Y396719D01*
X211520Y396341D01*
X212500Y396212D01*
X213480Y396341D01*
X213845Y396492D01*
X216471Y393866D01*
Y324150D01*
X207563D01*
Y321529D01*
X192133D01*
X189029Y324634D01*
Y396568D01*
X189394Y396719D01*
X190179Y397321D01*
X190781Y398106D01*
X191159Y399020D01*
X191288Y400000D01*
X191159Y400981D01*
X190781Y401894D01*
X190179Y402679D01*
X189394Y403281D01*
X188480Y403659D01*
X187500Y403788D01*
X186520Y403659D01*
X185606Y403281D01*
X184821Y402679D01*
X184219Y401894D01*
X183841Y400981D01*
X183712Y400000D01*
X183841Y399020D01*
X184219Y398106D01*
X184821Y397321D01*
X185606Y396719D01*
X185971Y396568D01*
Y324000D01*
X186087Y323415D01*
X186419Y322919D01*
X190419Y318919D01*
X190915Y318587D01*
X191500Y318471D01*
X207563D01*
Y315850D01*
X216471D01*
Y314196D01*
X215971Y313950D01*
X215420Y314373D01*
X214410Y314791D01*
X213327Y314933D01*
X211752D01*
X210669Y314791D01*
X209659Y314373D01*
X208792Y313707D01*
X208127Y312841D01*
X207709Y311831D01*
X207567Y310748D01*
X207709Y309665D01*
X208127Y308655D01*
X208792Y307788D01*
X209659Y307123D01*
X210669Y306705D01*
X211752Y306563D01*
X213327D01*
X214410Y306705D01*
X215420Y307123D01*
X215971Y307546D01*
X216471Y307300D01*
Y304196D01*
X215971Y303950D01*
X215420Y304373D01*
X214410Y304791D01*
X213327Y304933D01*
X211752D01*
X210669Y304791D01*
X209659Y304373D01*
X208792Y303708D01*
X208127Y302841D01*
X207709Y301831D01*
X207567Y300748D01*
X207709Y299665D01*
X208127Y298655D01*
X208792Y297789D01*
X208904Y297703D01*
X208743Y297229D01*
X208000D01*
X207415Y297113D01*
X206919Y296781D01*
X202119Y291981D01*
X201787Y291485D01*
X201671Y290900D01*
Y260000D01*
X201787Y259415D01*
X202119Y258919D01*
X206419Y254619D01*
X206915Y254287D01*
X207500Y254171D01*
X208635D01*
X208714Y253939D01*
X208764Y253671D01*
X208127Y252841D01*
X207894Y252277D01*
X206785D01*
X181429Y277634D01*
Y297600D01*
X181313Y298185D01*
X180981Y298681D01*
X175707Y303956D01*
X175776Y304122D01*
X175891Y305000D01*
X175776Y305878D01*
X175437Y306696D01*
X174898Y307398D01*
X174196Y307937D01*
X174029Y308006D01*
Y339494D01*
X174196Y339563D01*
X174898Y340102D01*
X175437Y340804D01*
X175776Y341622D01*
X175891Y342500D01*
X175776Y343378D01*
X175437Y344196D01*
X174898Y344898D01*
X174196Y345437D01*
X173378Y345776D01*
X172500Y345891D01*
X171622Y345776D01*
X171456Y345707D01*
X170129Y347034D01*
Y369516D01*
X170578Y369737D01*
X170804Y369563D01*
X171622Y369224D01*
X172500Y369109D01*
X173378Y369224D01*
X174196Y369563D01*
X174898Y370102D01*
X175437Y370804D01*
X175776Y371622D01*
X175891Y372500D01*
X175776Y373378D01*
X175437Y374196D01*
X174898Y374898D01*
X174196Y375437D01*
X173378Y375776D01*
X172500Y375891D01*
X171622Y375776D01*
X170804Y375437D01*
X170578Y375263D01*
X170129Y375484D01*
Y423900D01*
X170013Y424485D01*
X169681Y424981D01*
X166008Y428655D01*
X166159Y429019D01*
X166288Y430000D01*
X166159Y430980D01*
X165781Y431894D01*
X165179Y432679D01*
X164394Y433281D01*
X163480Y433659D01*
X162500Y433788D01*
D02*
G37*
G36*
X232642Y487329D02*
X203300D01*
X202715Y487213D01*
X202219Y486881D01*
X179523Y464186D01*
X178712Y464522D01*
X177500Y464682D01*
X176288Y464522D01*
X175159Y464054D01*
X174189Y463310D01*
X173445Y462341D01*
X172978Y461212D01*
X172818Y460000D01*
X172978Y458788D01*
X173445Y457659D01*
X174189Y456690D01*
X175159Y455945D01*
X176288Y455478D01*
X177500Y455318D01*
X178712Y455478D01*
X179841Y455945D01*
X180810Y456690D01*
X181554Y457659D01*
X182022Y458788D01*
X182182Y460000D01*
X182022Y461212D01*
X181686Y462023D01*
X203934Y484271D01*
X222858D01*
Y477521D01*
X211419Y466081D01*
X211087Y465585D01*
X210971Y465000D01*
Y433432D01*
X210606Y433281D01*
X209821Y432679D01*
X209219Y431894D01*
X208841Y430980D01*
X208712Y430000D01*
X208841Y429019D01*
X209219Y428106D01*
X209821Y427321D01*
X210606Y426719D01*
X211520Y426341D01*
X212500Y426212D01*
X213480Y426341D01*
X214394Y426719D01*
X215179Y427321D01*
X215781Y428106D01*
X216159Y429019D01*
X216288Y430000D01*
X216159Y430980D01*
X215781Y431894D01*
X215179Y432679D01*
X214394Y433281D01*
X214029Y433432D01*
Y464366D01*
X225021Y475358D01*
X231112D01*
Y463709D01*
X230612Y463462D01*
X229841Y464054D01*
X228712Y464522D01*
X227500Y464682D01*
X226288Y464522D01*
X225159Y464054D01*
X224189Y463310D01*
X223446Y462341D01*
X222978Y461212D01*
X222818Y460000D01*
X222978Y458788D01*
X223446Y457659D01*
X224189Y456690D01*
X225159Y455945D01*
X225971Y455609D01*
Y380000D01*
X226087Y379415D01*
X226419Y378919D01*
X230719Y374619D01*
X231215Y374287D01*
X231800Y374171D01*
X283200D01*
X283785Y374287D01*
X284281Y374619D01*
X286155Y376492D01*
X286520Y376341D01*
X287500Y376212D01*
X288480Y376341D01*
X289394Y376719D01*
X290179Y377321D01*
X290781Y378106D01*
X291159Y379019D01*
X291288Y380000D01*
X291159Y380980D01*
X290781Y381894D01*
X290179Y382679D01*
X289394Y383281D01*
X288480Y383659D01*
X287500Y383788D01*
X286520Y383659D01*
X286155Y383508D01*
X284729Y384933D01*
Y425067D01*
X286155Y426492D01*
X286520Y426341D01*
X287500Y426212D01*
X288480Y426341D01*
X289394Y426719D01*
X290179Y427321D01*
X290781Y428106D01*
X291159Y429019D01*
X291288Y430000D01*
X291159Y430980D01*
X290781Y431894D01*
X290179Y432679D01*
X289394Y433281D01*
X288480Y433659D01*
X287500Y433788D01*
X286520Y433659D01*
X285606Y433281D01*
X284821Y432679D01*
X284219Y431894D01*
X283841Y430980D01*
X283712Y430000D01*
X283841Y429019D01*
X283992Y428655D01*
X282119Y426781D01*
X281787Y426285D01*
X281671Y425700D01*
Y384300D01*
X281787Y383715D01*
X282119Y383219D01*
X283992Y381345D01*
X283841Y380980D01*
X283712Y380000D01*
X283841Y379019D01*
X283992Y378655D01*
X282566Y377229D01*
X265739D01*
X265492Y377729D01*
X265781Y378106D01*
X266159Y379019D01*
X266288Y380000D01*
X266159Y380980D01*
X265781Y381894D01*
X265179Y382679D01*
X264394Y383281D01*
X264029Y383432D01*
Y396568D01*
X264394Y396719D01*
X265179Y397321D01*
X265781Y398106D01*
X266159Y399020D01*
X266288Y400000D01*
X266159Y400981D01*
X265781Y401894D01*
X265179Y402679D01*
X264394Y403281D01*
X263480Y403659D01*
X262500Y403788D01*
X261520Y403659D01*
X260606Y403281D01*
X259821Y402679D01*
X259219Y401894D01*
X258841Y400981D01*
X258712Y400000D01*
X258841Y399020D01*
X258992Y398655D01*
X257566Y397229D01*
X240739D01*
X240492Y397729D01*
X240781Y398106D01*
X241159Y399020D01*
X241288Y400000D01*
X241159Y400981D01*
X241008Y401345D01*
X254481Y414819D01*
X254813Y415315D01*
X254929Y415900D01*
Y472266D01*
X260633Y477971D01*
X276667D01*
X276913Y477471D01*
X276547Y476993D01*
X276149Y476032D01*
X276013Y475000D01*
X276149Y473968D01*
X276547Y473007D01*
X277181Y472181D01*
X278007Y471547D01*
X278968Y471149D01*
X280000Y471013D01*
X281032Y471149D01*
X281993Y471547D01*
X282819Y472181D01*
X283453Y473007D01*
X283851Y473968D01*
X283987Y475000D01*
X283851Y476032D01*
X283453Y476993D01*
X283087Y477471D01*
X283333Y477971D01*
X284866D01*
X286341Y476496D01*
X286149Y476032D01*
X286013Y475000D01*
X286149Y473968D01*
X286547Y473007D01*
X287181Y472181D01*
X288007Y471547D01*
X288968Y471149D01*
X290000Y471013D01*
X291032Y471149D01*
X291993Y471547D01*
X292819Y472181D01*
X293453Y473007D01*
X293851Y473968D01*
X293987Y475000D01*
X293851Y476032D01*
X293453Y476993D01*
X292819Y477819D01*
X291993Y478453D01*
X291032Y478851D01*
X290000Y478987D01*
X288968Y478851D01*
X288504Y478659D01*
X286581Y480581D01*
X286085Y480913D01*
X285500Y481029D01*
X260000D01*
X259415Y480913D01*
X258919Y480581D01*
X252319Y473981D01*
X251987Y473485D01*
X251871Y472900D01*
Y416534D01*
X238845Y403508D01*
X238480Y403659D01*
X237500Y403788D01*
X236520Y403659D01*
X235606Y403281D01*
X234821Y402679D01*
X234671Y402483D01*
X234171Y402653D01*
Y485800D01*
X234055Y486385D01*
X233723Y486881D01*
X233227Y487213D01*
X232642Y487329D01*
D02*
G37*
G36*
X287500Y353788D02*
X286520Y353659D01*
X285606Y353281D01*
X284821Y352679D01*
X284219Y351894D01*
X283841Y350980D01*
X283712Y350000D01*
X283841Y349020D01*
X284219Y348106D01*
X284821Y347321D01*
X285606Y346719D01*
X286520Y346341D01*
X287500Y346212D01*
X288480Y346341D01*
X289394Y346719D01*
X290179Y347321D01*
X290781Y348106D01*
X291159Y349020D01*
X291288Y350000D01*
X291159Y350980D01*
X290781Y351894D01*
X290179Y352679D01*
X289394Y353281D01*
X288480Y353659D01*
X287500Y353788D01*
D02*
G37*
G36*
X134642Y484642D02*
X125358D01*
Y475358D01*
X134642D01*
Y484642D01*
D02*
G37*
G36*
X137500Y433788D02*
X136520Y433659D01*
X135606Y433281D01*
X134821Y432679D01*
X134219Y431894D01*
X133841Y430980D01*
X133712Y430000D01*
X133841Y429019D01*
X134219Y428106D01*
X134821Y427321D01*
X135606Y426719D01*
X136520Y426341D01*
X137500Y426212D01*
X138480Y426341D01*
X139394Y426719D01*
X140179Y427321D01*
X140781Y428106D01*
X141159Y429019D01*
X141288Y430000D01*
X141159Y430980D01*
X140781Y431894D01*
X140179Y432679D01*
X139394Y433281D01*
X138480Y433659D01*
X137500Y433788D01*
D02*
G37*
G36*
X120000Y375891D02*
X119122Y375776D01*
X118304Y375437D01*
X117602Y374898D01*
X117063Y374196D01*
X116724Y373378D01*
X116609Y372500D01*
X116724Y371622D01*
X117063Y370804D01*
X117602Y370102D01*
X118304Y369563D01*
X119122Y369224D01*
X120000Y369109D01*
X120878Y369224D01*
X121696Y369563D01*
X122398Y370102D01*
X122937Y370804D01*
X123276Y371622D01*
X123391Y372500D01*
X123276Y373378D01*
X122937Y374196D01*
X122398Y374898D01*
X121696Y375437D01*
X120878Y375776D01*
X120000Y375891D01*
D02*
G37*
G36*
X130000Y464682D02*
X128788Y464522D01*
X127659Y464054D01*
X126690Y463310D01*
X125945Y462341D01*
X125478Y461212D01*
X125318Y460000D01*
X125478Y458788D01*
X125945Y457659D01*
X126690Y456690D01*
X127659Y455945D01*
X128471Y455609D01*
Y448134D01*
X113845Y433508D01*
X113480Y433659D01*
X112500Y433788D01*
X111520Y433659D01*
X110606Y433281D01*
X109821Y432679D01*
X109219Y431894D01*
X108841Y430980D01*
X108712Y430000D01*
X108841Y429019D01*
X109219Y428106D01*
X109821Y427321D01*
X110606Y426719D01*
X111520Y426341D01*
X112500Y426212D01*
X113480Y426341D01*
X114394Y426719D01*
X115179Y427321D01*
X115781Y428106D01*
X116159Y429019D01*
X116288Y430000D01*
X116159Y430980D01*
X116008Y431345D01*
X131081Y446419D01*
X131413Y446915D01*
X131529Y447500D01*
Y455609D01*
X132341Y455945D01*
X133310Y456690D01*
X134055Y457659D01*
X134522Y458788D01*
X134682Y460000D01*
X134522Y461212D01*
X134055Y462341D01*
X133310Y463310D01*
X132341Y464054D01*
X131212Y464522D01*
X130000Y464682D01*
D02*
G37*
G36*
X120000Y345891D02*
X119122Y345776D01*
X118304Y345437D01*
X117602Y344898D01*
X117063Y344196D01*
X116724Y343378D01*
X116609Y342500D01*
X116724Y341622D01*
X117063Y340804D01*
X117602Y340102D01*
X118304Y339563D01*
X119122Y339224D01*
X120000Y339109D01*
X120878Y339224D01*
X121044Y339293D01*
X122371Y337966D01*
Y307984D01*
X121922Y307763D01*
X121696Y307937D01*
X120878Y308276D01*
X120000Y308391D01*
X119122Y308276D01*
X118304Y307937D01*
X117602Y307398D01*
X117063Y306696D01*
X116724Y305878D01*
X116609Y305000D01*
X116724Y304122D01*
X117063Y303304D01*
X117602Y302602D01*
X118304Y302063D01*
X119122Y301724D01*
X120000Y301609D01*
X120878Y301724D01*
X121696Y302063D01*
X121922Y302237D01*
X122371Y302016D01*
Y279534D01*
X121044Y278207D01*
X120878Y278276D01*
X120000Y278391D01*
X119122Y278276D01*
X118304Y277937D01*
X117602Y277398D01*
X117063Y276696D01*
X116724Y275878D01*
X116609Y275000D01*
X116724Y274122D01*
X117063Y273304D01*
X117602Y272602D01*
X118304Y272063D01*
X119122Y271724D01*
X120000Y271609D01*
X120878Y271724D01*
X121044Y271793D01*
X122371Y270466D01*
Y245484D01*
X121922Y245263D01*
X121696Y245437D01*
X120878Y245776D01*
X120000Y245891D01*
X119122Y245776D01*
X118304Y245437D01*
X117602Y244898D01*
X117063Y244196D01*
X116724Y243378D01*
X116609Y242500D01*
X116724Y241622D01*
X117063Y240804D01*
X117602Y240102D01*
X118304Y239563D01*
X119122Y239224D01*
X120000Y239109D01*
X120878Y239224D01*
X121696Y239563D01*
X121922Y239737D01*
X122371Y239516D01*
Y217034D01*
X121044Y215707D01*
X120878Y215776D01*
X120000Y215891D01*
X119122Y215776D01*
X118304Y215437D01*
X117602Y214898D01*
X117063Y214196D01*
X116724Y213378D01*
X116609Y212500D01*
X116724Y211622D01*
X117063Y210804D01*
X117602Y210102D01*
X118304Y209563D01*
X118471Y209494D01*
Y200000D01*
X118587Y199415D01*
X118919Y198919D01*
X136793Y181044D01*
X136724Y180878D01*
X136609Y180000D01*
X136724Y179122D01*
X137063Y178304D01*
X137602Y177602D01*
X138304Y177063D01*
X139122Y176724D01*
X140000Y176609D01*
X140878Y176724D01*
X141696Y177063D01*
X142398Y177602D01*
X142937Y178304D01*
X143276Y179122D01*
X143391Y180000D01*
X143276Y180878D01*
X142937Y181696D01*
X142398Y182398D01*
X141696Y182937D01*
X140878Y183276D01*
X140000Y183391D01*
X139122Y183276D01*
X138956Y183207D01*
X121529Y200634D01*
Y209494D01*
X121696Y209563D01*
X122398Y210102D01*
X122937Y210804D01*
X123276Y211622D01*
X123391Y212500D01*
X123276Y213378D01*
X123207Y213544D01*
X124981Y215319D01*
X125313Y215815D01*
X125429Y216400D01*
Y271100D01*
X125313Y271685D01*
X124981Y272181D01*
X123207Y273956D01*
X123276Y274122D01*
X123391Y275000D01*
X123276Y275878D01*
X123207Y276044D01*
X124981Y277819D01*
X125313Y278315D01*
X125429Y278900D01*
Y338600D01*
X125313Y339185D01*
X124981Y339681D01*
X123207Y341456D01*
X123276Y341622D01*
X123391Y342500D01*
X123276Y343378D01*
X122937Y344196D01*
X122398Y344898D01*
X121696Y345437D01*
X120878Y345776D01*
X120000Y345891D01*
D02*
G37*
G36*
X243327Y314933D02*
X241752D01*
X240669Y314791D01*
X239659Y314373D01*
X238792Y313707D01*
X238127Y312841D01*
X237709Y311831D01*
X237567Y310748D01*
X237709Y309665D01*
X238127Y308655D01*
X238792Y307788D01*
X239659Y307123D01*
X240669Y306705D01*
X241752Y306563D01*
X243327D01*
X244410Y306705D01*
X245420Y307123D01*
X246286Y307788D01*
X246952Y308655D01*
X247370Y309665D01*
X247512Y310748D01*
X247370Y311831D01*
X246952Y312841D01*
X246286Y313707D01*
X245420Y314373D01*
X244410Y314791D01*
X243327Y314933D01*
D02*
G37*
G36*
Y304933D02*
X241752D01*
X240669Y304791D01*
X239659Y304373D01*
X238792Y303708D01*
X238127Y302841D01*
X237709Y301831D01*
X237567Y300748D01*
X237709Y299665D01*
X238127Y298655D01*
X238792Y297789D01*
X239659Y297123D01*
X240669Y296705D01*
X241752Y296563D01*
X243327D01*
X244410Y296705D01*
X245420Y297123D01*
X246286Y297789D01*
X246952Y298655D01*
X247370Y299665D01*
X247512Y300748D01*
X247370Y301831D01*
X246952Y302841D01*
X246286Y303708D01*
X245420Y304373D01*
X244410Y304791D01*
X243327Y304933D01*
D02*
G37*
G36*
Y324933D02*
X241752D01*
X240669Y324791D01*
X239659Y324373D01*
X238792Y323708D01*
X238127Y322841D01*
X237709Y321831D01*
X237567Y320748D01*
X237709Y319665D01*
X238127Y318655D01*
X238792Y317789D01*
X239659Y317123D01*
X240669Y316705D01*
X241752Y316563D01*
X243327D01*
X244410Y316705D01*
X245420Y317123D01*
X246286Y317789D01*
X246952Y318655D01*
X247370Y319665D01*
X247512Y320748D01*
X247370Y321831D01*
X246952Y322841D01*
X246286Y323708D01*
X245420Y324373D01*
X244410Y324791D01*
X243327Y324933D01*
D02*
G37*
G36*
X182142Y484642D02*
X172858D01*
Y475358D01*
X182142D01*
Y484642D01*
D02*
G37*
G36*
X300000Y478987D02*
X298968Y478851D01*
X298007Y478453D01*
X297181Y477819D01*
X296547Y476993D01*
X296149Y476032D01*
X296013Y475000D01*
X296149Y473968D01*
X296547Y473007D01*
X297181Y472181D01*
X298007Y471547D01*
X298471Y471355D01*
Y335633D01*
X292007Y329170D01*
X291497Y329561D01*
X290775Y329861D01*
X290000Y329963D01*
X289225Y329861D01*
X288503Y329561D01*
X287883Y329086D01*
X287750Y328913D01*
X287250D01*
X287117Y329086D01*
X286497Y329561D01*
X285775Y329861D01*
X285000Y329963D01*
X284225Y329861D01*
X283503Y329561D01*
X282883Y329086D01*
X282750Y328913D01*
X282250D01*
X282117Y329086D01*
X281497Y329561D01*
X280775Y329861D01*
X280000Y329963D01*
X279225Y329861D01*
X278503Y329561D01*
X277883Y329086D01*
X277407Y328466D01*
X277108Y327743D01*
X277006Y326969D01*
Y323031D01*
X277108Y322257D01*
X277407Y321534D01*
X277883Y320914D01*
X278471Y320463D01*
Y299537D01*
X277883Y299086D01*
X277407Y298466D01*
X277108Y297743D01*
X277006Y296969D01*
Y293032D01*
X277108Y292257D01*
X277407Y291534D01*
X277883Y290914D01*
X278471Y290463D01*
Y180000D01*
X278587Y179415D01*
X278919Y178919D01*
X283841Y173996D01*
X283649Y173532D01*
X283513Y172500D01*
X283649Y171468D01*
X284047Y170507D01*
X284681Y169681D01*
X285507Y169047D01*
X285971Y168855D01*
Y166145D01*
X285507Y165953D01*
X284681Y165319D01*
X284047Y164493D01*
X283649Y163532D01*
X283513Y162500D01*
X283649Y161468D01*
X284047Y160507D01*
X284681Y159681D01*
X285507Y159047D01*
X286468Y158649D01*
X287500Y158513D01*
X288532Y158649D01*
X289493Y159047D01*
X290319Y159681D01*
X290953Y160507D01*
X291351Y161468D01*
X291487Y162500D01*
X291351Y163532D01*
X290953Y164493D01*
X290319Y165319D01*
X289493Y165953D01*
X289029Y166145D01*
Y168855D01*
X289493Y169047D01*
X290319Y169681D01*
X290953Y170507D01*
X291351Y171468D01*
X291487Y172500D01*
X291351Y173532D01*
X290953Y174493D01*
X290319Y175319D01*
X289493Y175953D01*
X288532Y176351D01*
X287500Y176487D01*
X286468Y176351D01*
X286004Y176159D01*
X281529Y180633D01*
Y290463D01*
X282117Y290914D01*
X282250Y291087D01*
X282750D01*
X282883Y290914D01*
X283503Y290439D01*
X284225Y290139D01*
X285000Y290037D01*
X285775Y290139D01*
X286497Y290439D01*
X287117Y290914D01*
X287250Y291087D01*
X287750D01*
X287883Y290914D01*
X288471Y290463D01*
Y261476D01*
X288587Y260891D01*
X288919Y260395D01*
X295318Y253996D01*
X295125Y253532D01*
X294989Y252500D01*
X295125Y251468D01*
X295524Y250507D01*
X296157Y249681D01*
X296983Y249047D01*
X297944Y248649D01*
X298976Y248513D01*
X300008Y248649D01*
X300970Y249047D01*
X301796Y249681D01*
X302429Y250507D01*
X302827Y251468D01*
X302963Y252500D01*
X302827Y253532D01*
X302429Y254493D01*
X301796Y255319D01*
X300970Y255953D01*
X300008Y256351D01*
X298976Y256487D01*
X297944Y256351D01*
X297481Y256159D01*
X291529Y262110D01*
Y290463D01*
X292117Y290914D01*
X292593Y291534D01*
X292892Y292257D01*
X292994Y293032D01*
Y296969D01*
X292892Y297743D01*
X292593Y298466D01*
X292117Y299086D01*
X291497Y299562D01*
X290775Y299861D01*
X290000Y299963D01*
X289225Y299861D01*
X288503Y299562D01*
X287883Y299086D01*
X287750Y298913D01*
X287250D01*
X287117Y299086D01*
X286497Y299562D01*
X285775Y299861D01*
X285000Y299963D01*
X284225Y299861D01*
X283503Y299562D01*
X282883Y299086D01*
X282750Y298913D01*
X282250D01*
X282117Y299086D01*
X281529Y299537D01*
Y320463D01*
X282117Y320914D01*
X282250Y321087D01*
X282750D01*
X282883Y320914D01*
X283503Y320439D01*
X284225Y320139D01*
X285000Y320037D01*
X285775Y320139D01*
X286497Y320439D01*
X287117Y320914D01*
X287250Y321087D01*
X287750D01*
X287883Y320914D01*
X288471Y320463D01*
Y310000D01*
X288587Y309415D01*
X288919Y308919D01*
X297447Y300390D01*
Y276145D01*
X296983Y275953D01*
X296157Y275319D01*
X295524Y274493D01*
X295125Y273532D01*
X294989Y272500D01*
X295125Y271468D01*
X295524Y270507D01*
X296157Y269681D01*
X296983Y269047D01*
X297944Y268649D01*
X298976Y268513D01*
X300008Y268649D01*
X300970Y269047D01*
X301796Y269681D01*
X302429Y270507D01*
X302827Y271468D01*
X302963Y272500D01*
X302827Y273532D01*
X302429Y274493D01*
X301796Y275319D01*
X300970Y275953D01*
X300506Y276145D01*
Y301024D01*
X300389Y301609D01*
X300058Y302105D01*
X291529Y310633D01*
Y320463D01*
X292117Y320914D01*
X292593Y321534D01*
X292892Y322257D01*
X292994Y323031D01*
Y325831D01*
X301081Y333919D01*
X301413Y334415D01*
X301529Y335000D01*
Y471355D01*
X301993Y471547D01*
X302819Y472181D01*
X303453Y473007D01*
X303851Y473968D01*
X303987Y475000D01*
X303851Y476032D01*
X303453Y476993D01*
X302819Y477819D01*
X301993Y478453D01*
X301032Y478851D01*
X300000Y478987D01*
D02*
G37*
%LPD*%
G36*
X273971Y215833D02*
X247885Y189748D01*
X247411Y189981D01*
X247512Y190748D01*
X247370Y191831D01*
X246952Y192841D01*
X246286Y193708D01*
X245420Y194373D01*
X244410Y194791D01*
X243327Y194933D01*
X241752D01*
X240669Y194791D01*
X239659Y194373D01*
X238792Y193708D01*
X238127Y192841D01*
X237709Y191831D01*
X237567Y190748D01*
X237709Y189665D01*
X238127Y188655D01*
X238792Y187788D01*
X238904Y187703D01*
X238743Y187229D01*
X216336D01*
X216175Y187703D01*
X216286Y187788D01*
X216951Y188655D01*
X217185Y189219D01*
X218000D01*
X218256Y189270D01*
X218515Y189308D01*
X218548Y189328D01*
X218585Y189335D01*
X218802Y189480D01*
X219027Y189614D01*
X224827Y194866D01*
X224850Y194897D01*
X224881Y194919D01*
X225026Y195136D01*
X225182Y195345D01*
X225192Y195383D01*
X225213Y195415D01*
X225264Y195671D01*
X225327Y195924D01*
X225322Y195962D01*
X225329Y196000D01*
Y218866D01*
X237080Y230617D01*
X237608Y230437D01*
X237709Y229665D01*
X238127Y228655D01*
X238792Y227788D01*
X239659Y227123D01*
X240669Y226705D01*
X241752Y226563D01*
X243327D01*
X244410Y226705D01*
X245420Y227123D01*
X246286Y227788D01*
X246952Y228655D01*
X247370Y229665D01*
X247512Y230748D01*
X247370Y231831D01*
X246952Y232841D01*
X246315Y233671D01*
X246365Y233939D01*
X246444Y234171D01*
X254224D01*
X254809Y234287D01*
X255305Y234619D01*
X269234Y248547D01*
X273971D01*
Y215833D01*
D02*
G37*
G36*
X178487Y276415D02*
X178819Y275919D01*
X205071Y249667D01*
X205567Y249335D01*
X206152Y249219D01*
X207894D01*
X208127Y248655D01*
X208792Y247789D01*
X209659Y247123D01*
X210669Y246705D01*
X211752Y246563D01*
X213327D01*
X214410Y246705D01*
X215420Y247123D01*
X216286Y247789D01*
X216951Y248655D01*
X217370Y249665D01*
X217512Y250748D01*
X217426Y251404D01*
X217899Y251638D01*
X234919Y234619D01*
X235415Y234287D01*
X235667Y234237D01*
X235831Y233694D01*
X222719Y220581D01*
X222387Y220085D01*
X222271Y219500D01*
Y196678D01*
X217640Y192485D01*
X217052Y192599D01*
X216951Y192841D01*
X216286Y193708D01*
X215420Y194373D01*
X214410Y194791D01*
X213327Y194933D01*
X211752D01*
X210669Y194791D01*
X209659Y194373D01*
X209129Y193966D01*
X208629Y194213D01*
Y197283D01*
X209129Y197530D01*
X209659Y197123D01*
X210669Y196705D01*
X211752Y196563D01*
X213327D01*
X214410Y196705D01*
X215420Y197123D01*
X216286Y197789D01*
X216951Y198655D01*
X217370Y199665D01*
X217512Y200748D01*
X217370Y201831D01*
X216951Y202841D01*
X216286Y203708D01*
X215420Y204373D01*
X214410Y204791D01*
X213327Y204933D01*
X211752D01*
X210669Y204791D01*
X209659Y204373D01*
X208792Y203708D01*
X208127Y202841D01*
X207894Y202277D01*
X207100D01*
X206515Y202161D01*
X206029Y201837D01*
X205960Y201849D01*
X205529Y201997D01*
Y236100D01*
X205413Y236685D01*
X205081Y237181D01*
X177929Y264334D01*
Y276655D01*
X178429Y276705D01*
X178487Y276415D01*
D02*
G37*
G36*
X231112Y456291D02*
Y398558D01*
X231229Y397973D01*
X231560Y397477D01*
X234419Y394619D01*
X234915Y394287D01*
X235500Y394171D01*
X258200D01*
X258785Y394287D01*
X259281Y394619D01*
X260509Y395846D01*
X260971Y395654D01*
Y383432D01*
X260606Y383281D01*
X259821Y382679D01*
X259219Y381894D01*
X258841Y380980D01*
X258712Y380000D01*
X258841Y379019D01*
X259219Y378106D01*
X259508Y377729D01*
X259261Y377229D01*
X240739D01*
X240492Y377729D01*
X240781Y378106D01*
X241159Y379019D01*
X241288Y380000D01*
X241159Y380980D01*
X240781Y381894D01*
X240179Y382679D01*
X239394Y383281D01*
X238480Y383659D01*
X237500Y383788D01*
X236520Y383659D01*
X235606Y383281D01*
X234821Y382679D01*
X234219Y381894D01*
X233841Y380980D01*
X233712Y380000D01*
X233841Y379019D01*
X234219Y378106D01*
X234508Y377729D01*
X234261Y377229D01*
X232434D01*
X229029Y380633D01*
Y455609D01*
X229841Y455945D01*
X230612Y456537D01*
X231112Y456291D01*
D02*
G37*
%LPC*%
G36*
X243327Y204933D02*
X241752D01*
X240669Y204791D01*
X239659Y204373D01*
X238792Y203708D01*
X238127Y202841D01*
X237709Y201831D01*
X237567Y200748D01*
X237709Y199665D01*
X238127Y198655D01*
X238792Y197789D01*
X239659Y197123D01*
X240669Y196705D01*
X241752Y196563D01*
X243327D01*
X244410Y196705D01*
X245420Y197123D01*
X246286Y197789D01*
X246952Y198655D01*
X247370Y199665D01*
X247512Y200748D01*
X247370Y201831D01*
X246952Y202841D01*
X246286Y203708D01*
X245420Y204373D01*
X244410Y204791D01*
X243327Y204933D01*
D02*
G37*
G36*
Y224933D02*
X241752D01*
X240669Y224791D01*
X239659Y224373D01*
X238792Y223708D01*
X238127Y222841D01*
X237709Y221831D01*
X237567Y220748D01*
X237709Y219665D01*
X238127Y218655D01*
X238792Y217789D01*
X239659Y217123D01*
X240669Y216705D01*
X241752Y216563D01*
X243327D01*
X244410Y216705D01*
X245420Y217123D01*
X246286Y217789D01*
X246952Y218655D01*
X247370Y219665D01*
X247512Y220748D01*
X247370Y221831D01*
X246952Y222841D01*
X246286Y223708D01*
X245420Y224373D01*
X244410Y224791D01*
X243327Y224933D01*
D02*
G37*
G36*
X213327Y234933D02*
X211752D01*
X210669Y234791D01*
X209659Y234373D01*
X208792Y233707D01*
X208127Y232841D01*
X207709Y231831D01*
X207567Y230748D01*
X207709Y229665D01*
X208127Y228655D01*
X208792Y227788D01*
X209659Y227123D01*
X210669Y226705D01*
X211752Y226563D01*
X213327D01*
X214410Y226705D01*
X215420Y227123D01*
X216286Y227788D01*
X216951Y228655D01*
X217370Y229665D01*
X217512Y230748D01*
X217370Y231831D01*
X216951Y232841D01*
X216286Y233707D01*
X215420Y234373D01*
X214410Y234791D01*
X213327Y234933D01*
D02*
G37*
G36*
Y244933D02*
X211752D01*
X210669Y244791D01*
X209659Y244373D01*
X208792Y243707D01*
X208127Y242841D01*
X207709Y241831D01*
X207567Y240748D01*
X207709Y239665D01*
X208127Y238655D01*
X208792Y237789D01*
X209659Y237123D01*
X210669Y236705D01*
X211752Y236563D01*
X213327D01*
X214410Y236705D01*
X215420Y237123D01*
X216286Y237789D01*
X216951Y238655D01*
X217370Y239665D01*
X217512Y240748D01*
X217370Y241831D01*
X216951Y242841D01*
X216286Y243707D01*
X215420Y244373D01*
X214410Y244791D01*
X213327Y244933D01*
D02*
G37*
G36*
Y214933D02*
X211752D01*
X210669Y214791D01*
X209659Y214373D01*
X208792Y213707D01*
X208127Y212841D01*
X207709Y211831D01*
X207567Y210748D01*
X207709Y209665D01*
X208127Y208655D01*
X208792Y207788D01*
X209659Y207123D01*
X210669Y206705D01*
X211752Y206563D01*
X213327D01*
X214410Y206705D01*
X215420Y207123D01*
X216286Y207788D01*
X216951Y208655D01*
X217370Y209665D01*
X217512Y210748D01*
X217370Y211831D01*
X216951Y212841D01*
X216286Y213707D01*
X215420Y214373D01*
X214410Y214791D01*
X213327Y214933D01*
D02*
G37*
G36*
X243327D02*
X241752D01*
X240669Y214791D01*
X239659Y214373D01*
X238792Y213707D01*
X238127Y212841D01*
X237709Y211831D01*
X237567Y210748D01*
X237709Y209665D01*
X238127Y208655D01*
X238792Y207788D01*
X239659Y207123D01*
X240669Y206705D01*
X241752Y206563D01*
X243327D01*
X244410Y206705D01*
X245420Y207123D01*
X246286Y207788D01*
X246952Y208655D01*
X247370Y209665D01*
X247512Y210748D01*
X247370Y211831D01*
X246952Y212841D01*
X246286Y213707D01*
X245420Y214373D01*
X244410Y214791D01*
X243327Y214933D01*
D02*
G37*
G36*
X213327Y224933D02*
X211752D01*
X210669Y224791D01*
X209659Y224373D01*
X208792Y223708D01*
X208127Y222841D01*
X207709Y221831D01*
X207567Y220748D01*
X207709Y219665D01*
X208127Y218655D01*
X208792Y217789D01*
X209659Y217123D01*
X210669Y216705D01*
X211752Y216563D01*
X213327D01*
X214410Y216705D01*
X215420Y217123D01*
X216286Y217789D01*
X216951Y218655D01*
X217370Y219665D01*
X217512Y220748D01*
X217370Y221831D01*
X216951Y222841D01*
X216286Y223708D01*
X215420Y224373D01*
X214410Y224791D01*
X213327Y224933D01*
D02*
G37*
%LPD*%
D10*
X183200Y434300D02*
X187500Y430000D01*
X160500Y434300D02*
X183200D01*
X137500Y411300D02*
X160500Y434300D01*
X137500Y400000D02*
Y411300D01*
Y310000D02*
X172500Y275000D01*
X137500Y310000D02*
Y400000D01*
X262500Y467500D02*
X270000Y475000D01*
X262500Y430000D02*
Y467500D01*
X238548Y240748D02*
X242539D01*
X218548Y260748D02*
X238548Y240748D01*
X212539Y260748D02*
X218548D01*
X262500Y380000D02*
Y400000D01*
X258200Y395700D02*
X262500Y400000D01*
X235500Y395700D02*
X258200D01*
X232642Y398558D02*
X235500Y395700D01*
X232642Y398558D02*
Y485800D01*
X203300D02*
X232642D01*
X177500Y460000D02*
X203300Y485800D01*
X130000Y447500D02*
Y460000D01*
X112500Y430000D02*
X130000Y447500D01*
X283200Y425700D02*
X287500Y430000D01*
X283200Y384300D02*
Y425700D01*
Y384300D02*
X287500Y380000D01*
X227500D02*
Y460000D01*
Y380000D02*
X231800Y375700D01*
X283200D01*
X287500Y380000D01*
X191500Y320000D02*
X212500D01*
X187500Y324000D02*
X191500Y320000D01*
X187500Y324000D02*
Y400000D01*
X298976Y272500D02*
Y301024D01*
X290000Y310000D02*
X298976Y301024D01*
X290000Y310000D02*
Y325000D01*
X300000Y335000D02*
Y475000D01*
X290000Y325000D02*
X300000Y335000D01*
X285500Y479500D02*
X290000Y475000D01*
X260000Y479500D02*
X285500D01*
X253400Y472900D02*
X260000Y479500D01*
X253400Y415900D02*
Y472900D01*
X237500Y400000D02*
X253400Y415900D01*
X290000Y261476D02*
X298976Y252500D01*
X290000Y261476D02*
Y295000D01*
X262500Y297800D02*
Y350000D01*
X250400Y285700D02*
X262500Y297800D01*
X218500Y285700D02*
X250400D01*
X213548Y280748D02*
X218500Y285700D01*
X212539Y280748D02*
X213548D01*
X226600Y339100D02*
X237500Y350000D01*
X226600Y296000D02*
Y339100D01*
X221348Y290748D02*
X226600Y296000D01*
X212539Y290748D02*
X221348D01*
X170000Y221476D02*
X187500Y238976D01*
X170000Y180000D02*
Y221476D01*
X206152Y250748D02*
X212539D01*
X179900Y277000D02*
X206152Y250748D01*
X179900Y277000D02*
Y297600D01*
X172500Y305000D02*
X179900Y297600D01*
X172500Y305000D02*
Y342500D01*
X168600Y346400D02*
X172500Y342500D01*
X168600Y346400D02*
Y423900D01*
X162500Y430000D02*
X168600Y423900D01*
X212500Y465000D02*
X227500Y480000D01*
X212500Y430000D02*
Y465000D01*
X120000Y342500D02*
X123900Y338600D01*
Y278900D02*
Y338600D01*
X120000Y275000D02*
X123900Y278900D01*
X120000Y275000D02*
X123900Y271100D01*
Y216400D02*
Y271100D01*
X120000Y212500D02*
X123900Y216400D01*
X120000Y200000D02*
X140000Y180000D01*
X120000Y200000D02*
Y212500D01*
X280000Y295000D02*
Y325000D01*
Y180000D02*
Y295000D01*
Y180000D02*
X287500Y172500D01*
Y162500D02*
Y172500D01*
X271024Y272500D02*
X275500Y268024D01*
X246000Y185700D02*
X275500Y215200D01*
X209400Y185700D02*
X246000D01*
X207100Y188000D02*
Y200748D01*
X212539D01*
X275500Y215200D02*
Y268024D01*
X204000Y191100D02*
Y236100D01*
X176400Y263700D02*
X204000Y236100D01*
X176400Y263700D02*
Y287900D01*
X162500Y301800D02*
X176400Y287900D01*
X162500Y301800D02*
Y400000D01*
X240000Y235700D02*
X254224D01*
X223800Y219500D02*
X240000Y235700D01*
X223800Y196000D02*
Y219500D01*
X218000Y190748D02*
X223800Y196000D01*
X212539Y190748D02*
X218000D01*
X254224Y235700D02*
X271024Y252500D01*
X216000Y255700D02*
X236000Y235700D01*
X207500Y255700D02*
X216000D01*
X203200Y260000D02*
X207500Y255700D01*
X203200Y260000D02*
Y290900D01*
X208000Y295700D01*
X216000D01*
X218000Y297700D01*
Y394500D01*
X212500Y400000D02*
X218000Y394500D01*
X204000Y191100D02*
X207100Y188000D01*
X209400Y185700D01*
X236000Y235700D02*
X240000D01*
D11*
X290000Y325000D02*
D03*
X280000D02*
D03*
X290000Y295000D02*
D03*
X280000D02*
D03*
D12*
X285000Y325000D02*
D03*
Y295000D02*
D03*
D13*
X271024Y272500D02*
D03*
Y252500D02*
D03*
X270000Y475000D02*
D03*
D14*
X298976Y272500D02*
D03*
Y252500D02*
D03*
X187500Y211024D02*
D03*
X287500Y222500D02*
D03*
Y212500D02*
D03*
Y202500D02*
D03*
Y192500D02*
D03*
Y182500D02*
D03*
Y172500D02*
D03*
Y162500D02*
D03*
X300000Y475000D02*
D03*
X290000D02*
D03*
X280000D02*
D03*
D15*
X187500Y238976D02*
D03*
X287500Y232500D02*
D03*
D16*
X120000Y242500D02*
D03*
Y212500D02*
D03*
X172500Y305000D02*
D03*
Y275000D02*
D03*
X140000Y180000D02*
D03*
X170000D02*
D03*
X120000Y305000D02*
D03*
Y275000D02*
D03*
X172500Y372500D02*
D03*
Y342500D02*
D03*
X120000Y372500D02*
D03*
Y342500D02*
D03*
D17*
X227500Y480000D02*
D03*
X177500D02*
D03*
X130000D02*
D03*
D18*
X227500Y460000D02*
D03*
X177500D02*
D03*
X130000D02*
D03*
D19*
X242539Y190748D02*
D03*
Y200748D02*
D03*
Y210748D02*
D03*
Y220748D02*
D03*
Y230748D02*
D03*
Y240748D02*
D03*
Y250748D02*
D03*
Y260748D02*
D03*
Y270748D02*
D03*
Y280748D02*
D03*
Y290748D02*
D03*
Y300748D02*
D03*
Y310748D02*
D03*
Y320748D02*
D03*
X212539Y190748D02*
D03*
Y200748D02*
D03*
Y210748D02*
D03*
Y220748D02*
D03*
Y230748D02*
D03*
Y240748D02*
D03*
Y250748D02*
D03*
Y260748D02*
D03*
Y270748D02*
D03*
Y280748D02*
D03*
Y290748D02*
D03*
Y300748D02*
D03*
Y310748D02*
D03*
D20*
X212500Y320000D02*
D03*
D21*
Y400000D02*
D03*
Y430000D02*
D03*
X187500D02*
D03*
Y400000D02*
D03*
X162500Y430000D02*
D03*
Y400000D02*
D03*
X137500D02*
D03*
Y430000D02*
D03*
X237500D02*
D03*
Y400000D02*
D03*
X287500D02*
D03*
Y430000D02*
D03*
X262500D02*
D03*
Y400000D02*
D03*
X112500D02*
D03*
Y430000D02*
D03*
X287500Y350000D02*
D03*
Y380000D02*
D03*
X262500Y350000D02*
D03*
Y380000D02*
D03*
X237500Y350000D02*
D03*
Y380000D02*
D03*
M02*
