G04 Layer_Color=128*
%FSLAX25Y25*%
%MOIN*%
G70*
G01*
G75*
%ADD42C,0.00500*%
D42*
X238622Y345000D02*
X241378D01*
X240000Y343622D02*
Y346378D01*
X238622Y315000D02*
X241378D01*
X240000Y313622D02*
Y316378D01*
X288622Y345000D02*
X291378D01*
X290000Y343622D02*
Y346378D01*
X288622Y315000D02*
X291378D01*
X290000Y313622D02*
Y316378D01*
X298327Y375000D02*
X301673D01*
X300000Y373327D02*
Y376673D01*
X298327Y405000D02*
X301673D01*
X300000Y403327D02*
Y406673D01*
X248327Y375000D02*
X251673D01*
X250000Y373327D02*
Y376673D01*
X248327Y405000D02*
X251673D01*
X250000Y403327D02*
Y406673D01*
X398327Y395000D02*
X401673D01*
X400000Y393327D02*
Y396673D01*
X398327Y425000D02*
X401673D01*
X400000Y423327D02*
Y426673D01*
X503327Y410000D02*
X506673D01*
X505000Y408327D02*
Y411673D01*
X533327Y410000D02*
X536673D01*
X535000Y408327D02*
Y411673D01*
X498228Y370000D02*
X501772D01*
X500000Y368228D02*
Y371772D01*
X498228Y360000D02*
X501772D01*
X500000Y358228D02*
Y361772D01*
X498228Y350000D02*
X501772D01*
X500000Y348228D02*
Y351772D01*
X498228Y340000D02*
X501772D01*
X500000Y338228D02*
Y341772D01*
X443228Y360000D02*
X446772D01*
X445000Y358228D02*
Y361772D01*
X438228Y360000D02*
X441772D01*
X440000Y358228D02*
Y361772D01*
X433228Y360000D02*
X436772D01*
X435000Y358228D02*
Y361772D01*
X528622Y305000D02*
X531378D01*
X530000Y303622D02*
Y306378D01*
X528622Y275000D02*
X531378D01*
X530000Y273622D02*
Y276378D01*
X233622Y190000D02*
X236378D01*
X235000Y188622D02*
Y191378D01*
X263622Y190000D02*
X266378D01*
X265000Y188622D02*
Y191378D01*
X238622Y265000D02*
X241378D01*
X240000Y263622D02*
Y266378D01*
X238622Y235000D02*
X241378D01*
X240000Y233622D02*
Y236378D01*
X322520Y190000D02*
X325276D01*
X323898Y188622D02*
Y191378D01*
X334724Y190000D02*
X337480D01*
X336102Y188622D02*
Y191378D01*
X288622Y265000D02*
X291378D01*
X290000Y263622D02*
Y266378D01*
X288622Y235000D02*
X291378D01*
X290000Y233622D02*
Y236378D01*
X397874Y200748D02*
X402205D01*
X400039Y198583D02*
Y202913D01*
X397874Y210748D02*
X402205D01*
X400039Y208583D02*
Y212913D01*
X397874Y220748D02*
X402205D01*
X400039Y218583D02*
Y222913D01*
X397874Y230748D02*
X402205D01*
X400039Y228583D02*
Y232913D01*
X397874Y240748D02*
X402205D01*
X400039Y238583D02*
Y242913D01*
X397874Y250748D02*
X402205D01*
X400039Y248583D02*
Y252913D01*
X397874Y260748D02*
X402205D01*
X400039Y258583D02*
Y262913D01*
X397874Y270748D02*
X402205D01*
X400039Y268583D02*
Y272913D01*
X397874Y280748D02*
X402205D01*
X400039Y278583D02*
Y282913D01*
X397874Y290748D02*
X402205D01*
X400039Y288583D02*
Y292913D01*
X397874Y300748D02*
X402205D01*
X400039Y298583D02*
Y302913D01*
X397874Y310748D02*
X402205D01*
X400039Y308583D02*
Y312913D01*
X397874Y320748D02*
X402205D01*
X400039Y318583D02*
Y322913D01*
X397874Y330748D02*
X402205D01*
X400039Y328583D02*
Y332913D01*
X367874Y200748D02*
X372205D01*
X370039Y198583D02*
Y202913D01*
X367874Y210748D02*
X372205D01*
X370039Y208583D02*
Y212913D01*
X367874Y220748D02*
X372205D01*
X370039Y218583D02*
Y222913D01*
X367874Y230748D02*
X372205D01*
X370039Y228583D02*
Y232913D01*
X367874Y240748D02*
X372205D01*
X370039Y238583D02*
Y242913D01*
X367874Y250748D02*
X372205D01*
X370039Y248583D02*
Y252913D01*
X367874Y260748D02*
X372205D01*
X370039Y258583D02*
Y262913D01*
X367874Y270748D02*
X372205D01*
X370039Y268583D02*
Y272913D01*
X367874Y280748D02*
X372205D01*
X370039Y278583D02*
Y282913D01*
X367874Y290748D02*
X372205D01*
X370039Y288583D02*
Y292913D01*
X367874Y300748D02*
X372205D01*
X370039Y298583D02*
Y302913D01*
X367874Y310748D02*
X372205D01*
X370039Y308583D02*
Y312913D01*
X367874Y320748D02*
X372205D01*
X370039Y318583D02*
Y322913D01*
X367835Y330000D02*
X372165D01*
X370000Y327835D02*
Y332165D01*
X494252Y190000D02*
X497795D01*
X496024Y188228D02*
Y191772D01*
X522205Y190000D02*
X525748D01*
X523976Y188228D02*
Y191772D01*
X328327Y305000D02*
X331673D01*
X330000Y303327D02*
Y306673D01*
X328327Y335000D02*
X331673D01*
X330000Y333327D02*
Y336673D01*
X494252Y230000D02*
X497795D01*
X496024Y228228D02*
Y231772D01*
X522205Y230000D02*
X525748D01*
X523976Y228228D02*
Y231772D01*
X493327Y460000D02*
X496673D01*
X495000Y458327D02*
Y461673D01*
X523327Y460000D02*
X526673D01*
X525000Y458327D02*
Y461673D01*
X463327Y410000D02*
X466673D01*
X465000Y408327D02*
Y411673D01*
X433327Y410000D02*
X436673D01*
X435000Y408327D02*
Y411673D01*
X373327Y380000D02*
X376673D01*
X375000Y378327D02*
Y381673D01*
X343327Y380000D02*
X346673D01*
X345000Y378327D02*
Y381673D01*
X363327Y420000D02*
X366673D01*
X365000Y418327D02*
Y421673D01*
X333327Y420000D02*
X336673D01*
X335000Y418327D02*
Y421673D01*
X443228Y300000D02*
X446772D01*
X445000Y298228D02*
Y301772D01*
X438228Y300000D02*
X441772D01*
X440000Y298228D02*
Y301772D01*
X433228Y300000D02*
X436772D01*
X435000Y298228D02*
Y301772D01*
X458228Y250000D02*
X461772D01*
X460000Y248228D02*
Y251772D01*
X458228Y240000D02*
X461772D01*
X460000Y238228D02*
Y241772D01*
X458228Y230000D02*
X461772D01*
X460000Y228228D02*
Y231772D01*
X458228Y220000D02*
X461772D01*
X460000Y218228D02*
Y221772D01*
X458228Y210000D02*
X461772D01*
X460000Y208228D02*
Y211772D01*
X458228Y200000D02*
X461772D01*
X460000Y198228D02*
Y201772D01*
X458228Y190000D02*
X461772D01*
X460000Y188228D02*
Y191772D01*
X458228Y180000D02*
X461772D01*
X460000Y178228D02*
Y181772D01*
X237835Y480000D02*
X242165D01*
X240000Y477835D02*
Y482165D01*
X237835Y460000D02*
X242165D01*
X240000Y457835D02*
Y462165D01*
X327835Y480000D02*
X332165D01*
X330000Y477835D02*
Y482165D01*
X327835Y460000D02*
X332165D01*
X330000Y457835D02*
Y462165D01*
X427835Y480000D02*
X432165D01*
X430000Y477835D02*
Y482165D01*
X427835Y460000D02*
X432165D01*
X430000Y457835D02*
Y462165D01*
X528600Y295000D02*
X531400D01*
X530000Y293600D02*
Y296400D01*
X509100Y285500D02*
X511900D01*
X510500Y284100D02*
Y286900D01*
X413600Y410000D02*
X416400D01*
X415000Y408600D02*
Y411400D01*
M02*
