G04 Layer_Color=2752767*
%FSLAX25Y25*%
%MOIN*%
G70*
G01*
G75*
%ADD42C,0.00500*%
%ADD43C,0.00667*%
D42*
X238000Y343000D02*
Y347000D01*
X242000D01*
Y343000D01*
X238000D01*
Y313000D02*
Y317000D01*
X242000D01*
Y313000D01*
X238000D01*
X288000Y343000D02*
Y347000D01*
X292000D01*
Y343000D01*
X288000D01*
Y313000D02*
Y317000D01*
X292000D01*
Y313000D01*
X288000D01*
X500000Y368000D02*
X498000Y372000D01*
X502000D01*
X500000Y368000D01*
Y358000D02*
X498000Y362000D01*
X502000D01*
X500000Y358000D01*
Y348000D02*
X498000Y352000D01*
X502000D01*
X500000Y348000D01*
Y338000D02*
X498000Y342000D01*
X502000D01*
X500000Y338000D01*
X445000Y358000D02*
X443000Y362000D01*
X447000D01*
X445000Y358000D01*
X440000D02*
X438000Y362000D01*
X442000D01*
X440000Y358000D01*
X435000D02*
X433000Y362000D01*
X437000D01*
X435000Y358000D01*
X528000Y303000D02*
Y307000D01*
X532000D01*
Y303000D01*
X528000D01*
Y273000D02*
Y277000D01*
X532000D01*
Y273000D01*
X528000D01*
X233000Y188000D02*
Y192000D01*
X237000D01*
Y188000D01*
X233000D01*
X263000D02*
Y192000D01*
X267000D01*
Y188000D01*
X263000D01*
X238000Y263000D02*
Y267000D01*
X242000D01*
Y263000D01*
X238000D01*
Y233000D02*
Y237000D01*
X242000D01*
Y233000D01*
X238000D01*
X321898Y188000D02*
Y192000D01*
X325898D01*
Y188000D01*
X321898D01*
X334102D02*
Y192000D01*
X338102D01*
Y188000D01*
X334102D01*
X288000Y263000D02*
Y267000D01*
X292000D01*
Y263000D01*
X288000D01*
Y233000D02*
Y237000D01*
X292000D01*
Y233000D01*
X288000D01*
X400039Y198748D02*
X401039Y199748D01*
X402039D01*
X401039Y200748D01*
X402039Y201748D01*
X401039D01*
X400039Y202748D01*
X399039Y201748D01*
X398039D01*
X399039Y200748D01*
X398039Y199748D01*
X399039D01*
X400039Y198748D01*
Y208748D02*
X401039Y209748D01*
X402039D01*
X401039Y210748D01*
X402039Y211748D01*
X401039D01*
X400039Y212748D01*
X399039Y211748D01*
X398039D01*
X399039Y210748D01*
X398039Y209748D01*
X399039D01*
X400039Y208748D01*
Y218748D02*
X401039Y219748D01*
X402039D01*
X401039Y220748D01*
X402039Y221748D01*
X401039D01*
X400039Y222748D01*
X399039Y221748D01*
X398039D01*
X399039Y220748D01*
X398039Y219748D01*
X399039D01*
X400039Y218748D01*
Y228748D02*
X401039Y229748D01*
X402039D01*
X401039Y230748D01*
X402039Y231748D01*
X401039D01*
X400039Y232748D01*
X399039Y231748D01*
X398039D01*
X399039Y230748D01*
X398039Y229748D01*
X399039D01*
X400039Y228748D01*
Y238748D02*
X401039Y239748D01*
X402039D01*
X401039Y240748D01*
X402039Y241748D01*
X401039D01*
X400039Y242748D01*
X399039Y241748D01*
X398039D01*
X399039Y240748D01*
X398039Y239748D01*
X399039D01*
X400039Y238748D01*
Y248748D02*
X401039Y249748D01*
X402039D01*
X401039Y250748D01*
X402039Y251748D01*
X401039D01*
X400039Y252748D01*
X399039Y251748D01*
X398039D01*
X399039Y250748D01*
X398039Y249748D01*
X399039D01*
X400039Y248748D01*
Y258748D02*
X401039Y259748D01*
X402039D01*
X401039Y260748D01*
X402039Y261748D01*
X401039D01*
X400039Y262748D01*
X399039Y261748D01*
X398039D01*
X399039Y260748D01*
X398039Y259748D01*
X399039D01*
X400039Y258748D01*
Y268748D02*
X401039Y269748D01*
X402039D01*
X401039Y270748D01*
X402039Y271748D01*
X401039D01*
X400039Y272748D01*
X399039Y271748D01*
X398039D01*
X399039Y270748D01*
X398039Y269748D01*
X399039D01*
X400039Y268748D01*
Y278748D02*
X401039Y279748D01*
X402039D01*
X401039Y280748D01*
X402039Y281748D01*
X401039D01*
X400039Y282748D01*
X399039Y281748D01*
X398039D01*
X399039Y280748D01*
X398039Y279748D01*
X399039D01*
X400039Y278748D01*
Y288748D02*
X401039Y289748D01*
X402039D01*
X401039Y290748D01*
X402039Y291748D01*
X401039D01*
X400039Y292748D01*
X399039Y291748D01*
X398039D01*
X399039Y290748D01*
X398039Y289748D01*
X399039D01*
X400039Y288748D01*
Y298748D02*
X401039Y299748D01*
X402039D01*
X401039Y300748D01*
X402039Y301748D01*
X401039D01*
X400039Y302748D01*
X399039Y301748D01*
X398039D01*
X399039Y300748D01*
X398039Y299748D01*
X399039D01*
X400039Y298748D01*
Y308748D02*
X401039Y309748D01*
X402039D01*
X401039Y310748D01*
X402039Y311748D01*
X401039D01*
X400039Y312748D01*
X399039Y311748D01*
X398039D01*
X399039Y310748D01*
X398039Y309748D01*
X399039D01*
X400039Y308748D01*
Y318748D02*
X401039Y319748D01*
X402039D01*
X401039Y320748D01*
X402039Y321748D01*
X401039D01*
X400039Y322748D01*
X399039Y321748D01*
X398039D01*
X399039Y320748D01*
X398039Y319748D01*
X399039D01*
X400039Y318748D01*
Y328748D02*
X401039Y329748D01*
X402039D01*
X401039Y330748D01*
X402039Y331748D01*
X401039D01*
X400039Y332748D01*
X399039Y331748D01*
X398039D01*
X399039Y330748D01*
X398039Y329748D01*
X399039D01*
X400039Y328748D01*
X370039Y198748D02*
X371039Y199748D01*
X372039D01*
X371039Y200748D01*
X372039Y201748D01*
X371039D01*
X370039Y202748D01*
X369039Y201748D01*
X368039D01*
X369039Y200748D01*
X368039Y199748D01*
X369039D01*
X370039Y198748D01*
Y208748D02*
X371039Y209748D01*
X372039D01*
X371039Y210748D01*
X372039Y211748D01*
X371039D01*
X370039Y212748D01*
X369039Y211748D01*
X368039D01*
X369039Y210748D01*
X368039Y209748D01*
X369039D01*
X370039Y208748D01*
Y218748D02*
X371039Y219748D01*
X372039D01*
X371039Y220748D01*
X372039Y221748D01*
X371039D01*
X370039Y222748D01*
X369039Y221748D01*
X368039D01*
X369039Y220748D01*
X368039Y219748D01*
X369039D01*
X370039Y218748D01*
Y228748D02*
X371039Y229748D01*
X372039D01*
X371039Y230748D01*
X372039Y231748D01*
X371039D01*
X370039Y232748D01*
X369039Y231748D01*
X368039D01*
X369039Y230748D01*
X368039Y229748D01*
X369039D01*
X370039Y228748D01*
Y238748D02*
X371039Y239748D01*
X372039D01*
X371039Y240748D01*
X372039Y241748D01*
X371039D01*
X370039Y242748D01*
X369039Y241748D01*
X368039D01*
X369039Y240748D01*
X368039Y239748D01*
X369039D01*
X370039Y238748D01*
Y248748D02*
X371039Y249748D01*
X372039D01*
X371039Y250748D01*
X372039Y251748D01*
X371039D01*
X370039Y252748D01*
X369039Y251748D01*
X368039D01*
X369039Y250748D01*
X368039Y249748D01*
X369039D01*
X370039Y248748D01*
Y258748D02*
X371039Y259748D01*
X372039D01*
X371039Y260748D01*
X372039Y261748D01*
X371039D01*
X370039Y262748D01*
X369039Y261748D01*
X368039D01*
X369039Y260748D01*
X368039Y259748D01*
X369039D01*
X370039Y258748D01*
Y268748D02*
X371039Y269748D01*
X372039D01*
X371039Y270748D01*
X372039Y271748D01*
X371039D01*
X370039Y272748D01*
X369039Y271748D01*
X368039D01*
X369039Y270748D01*
X368039Y269748D01*
X369039D01*
X370039Y268748D01*
Y278748D02*
X371039Y279748D01*
X372039D01*
X371039Y280748D01*
X372039Y281748D01*
X371039D01*
X370039Y282748D01*
X369039Y281748D01*
X368039D01*
X369039Y280748D01*
X368039Y279748D01*
X369039D01*
X370039Y278748D01*
Y288748D02*
X371039Y289748D01*
X372039D01*
X371039Y290748D01*
X372039Y291748D01*
X371039D01*
X370039Y292748D01*
X369039Y291748D01*
X368039D01*
X369039Y290748D01*
X368039Y289748D01*
X369039D01*
X370039Y288748D01*
Y298748D02*
X371039Y299748D01*
X372039D01*
X371039Y300748D01*
X372039Y301748D01*
X371039D01*
X370039Y302748D01*
X369039Y301748D01*
X368039D01*
X369039Y300748D01*
X368039Y299748D01*
X369039D01*
X370039Y298748D01*
Y308748D02*
X371039Y309748D01*
X372039D01*
X371039Y310748D01*
X372039Y311748D01*
X371039D01*
X370039Y312748D01*
X369039Y311748D01*
X368039D01*
X369039Y310748D01*
X368039Y309748D01*
X369039D01*
X370039Y308748D01*
Y318748D02*
X371039Y319748D01*
X372039D01*
X371039Y320748D01*
X372039Y321748D01*
X371039D01*
X370039Y322748D01*
X369039Y321748D01*
X368039D01*
X369039Y320748D01*
X368039Y319748D01*
X369039D01*
X370039Y318748D01*
X370000Y328000D02*
X371000Y329000D01*
X372000D01*
X371000Y330000D01*
X372000Y331000D01*
X371000D01*
X370000Y332000D01*
X369000Y331000D01*
X368000D01*
X369000Y330000D01*
X368000Y329000D01*
X369000D01*
X370000Y328000D01*
X496024Y188000D02*
X494024Y192000D01*
X498024D01*
X496024Y188000D01*
X523976D02*
X521976Y192000D01*
X525976D01*
X523976Y188000D01*
X496024Y228000D02*
X494024Y232000D01*
X498024D01*
X496024Y228000D01*
X523976D02*
X521976Y232000D01*
X525976D01*
X523976Y228000D01*
X445000Y298000D02*
X443000Y302000D01*
X447000D01*
X445000Y298000D01*
X440000D02*
X438000Y302000D01*
X442000D01*
X440000Y298000D01*
X435000D02*
X433000Y302000D01*
X437000D01*
X435000Y298000D01*
X460000Y248000D02*
X458000Y252000D01*
X462000D01*
X460000Y248000D01*
Y238000D02*
X458000Y242000D01*
X462000D01*
X460000Y238000D01*
Y228000D02*
X458000Y232000D01*
X462000D01*
X460000Y228000D01*
Y218000D02*
X458000Y222000D01*
X462000D01*
X460000Y218000D01*
Y208000D02*
X458000Y212000D01*
X462000D01*
X460000Y208000D01*
Y198000D02*
X458000Y202000D01*
X462000D01*
X460000Y198000D01*
Y188000D02*
X458000Y192000D01*
X462000D01*
X460000Y188000D01*
Y178000D02*
X458000Y182000D01*
X462000D01*
X460000Y178000D01*
X240000Y478000D02*
X241000Y479000D01*
X242000D01*
X241000Y480000D01*
X242000Y481000D01*
X241000D01*
X240000Y482000D01*
X239000Y481000D01*
X238000D01*
X239000Y480000D01*
X238000Y479000D01*
X239000D01*
X240000Y478000D01*
Y458000D02*
X241000Y459000D01*
X242000D01*
X241000Y460000D01*
X242000Y461000D01*
X241000D01*
X240000Y462000D01*
X239000Y461000D01*
X238000D01*
X239000Y460000D01*
X238000Y459000D01*
X239000D01*
X240000Y458000D01*
X330000Y478000D02*
X331000Y479000D01*
X332000D01*
X331000Y480000D01*
X332000Y481000D01*
X331000D01*
X330000Y482000D01*
X329000Y481000D01*
X328000D01*
X329000Y480000D01*
X328000Y479000D01*
X329000D01*
X330000Y478000D01*
Y458000D02*
X331000Y459000D01*
X332000D01*
X331000Y460000D01*
X332000Y461000D01*
X331000D01*
X330000Y462000D01*
X329000Y461000D01*
X328000D01*
X329000Y460000D01*
X328000Y459000D01*
X329000D01*
X330000Y458000D01*
X430000Y478000D02*
X431000Y479000D01*
X432000D01*
X431000Y480000D01*
X432000Y481000D01*
X431000D01*
X430000Y482000D01*
X429000Y481000D01*
X428000D01*
X429000Y480000D01*
X428000Y479000D01*
X429000D01*
X430000Y478000D01*
Y458000D02*
X431000Y459000D01*
X432000D01*
X431000Y460000D01*
X432000Y461000D01*
X431000D01*
X430000Y462000D01*
X429000Y461000D01*
X428000D01*
X429000Y460000D01*
X428000Y459000D01*
X429000D01*
X430000Y458000D01*
X528000Y293000D02*
X529000Y295000D01*
X528000Y297000D01*
X530000Y296000D01*
X532000Y297000D01*
X531000Y295000D01*
X532000Y293000D01*
X530000Y294000D01*
X528000Y293000D01*
X508500Y283500D02*
X509500Y285500D01*
X508500Y287500D01*
X510500Y286500D01*
X512500Y287500D01*
X511500Y285500D01*
X512500Y283500D01*
X510500Y284500D01*
X508500Y283500D01*
X413000Y408000D02*
X414000Y410000D01*
X413000Y412000D01*
X415000Y411000D01*
X417000Y412000D01*
X416000Y410000D01*
X417000Y408000D01*
X415000Y409000D01*
X413000Y408000D01*
D43*
X302000Y375000D02*
X301771Y375929D01*
X301136Y376646D01*
X300241Y376985D01*
X299291Y376870D01*
X298503Y376326D01*
X298058Y375479D01*
Y374521D01*
X298503Y373674D01*
X299291Y373130D01*
X300241Y373015D01*
X301136Y373354D01*
X301771Y374071D01*
X302000Y375000D01*
Y405000D02*
X301771Y405929D01*
X301136Y406646D01*
X300241Y406985D01*
X299291Y406870D01*
X298503Y406326D01*
X298058Y405479D01*
Y404521D01*
X298503Y403674D01*
X299291Y403130D01*
X300241Y403015D01*
X301136Y403354D01*
X301771Y404071D01*
X302000Y405000D01*
X252000Y375000D02*
X251771Y375929D01*
X251136Y376646D01*
X250241Y376985D01*
X249291Y376870D01*
X248503Y376326D01*
X248058Y375479D01*
Y374521D01*
X248503Y373674D01*
X249291Y373130D01*
X250241Y373015D01*
X251136Y373354D01*
X251771Y374071D01*
X252000Y375000D01*
Y405000D02*
X251771Y405929D01*
X251136Y406646D01*
X250241Y406985D01*
X249291Y406870D01*
X248503Y406326D01*
X248058Y405479D01*
Y404521D01*
X248503Y403674D01*
X249291Y403130D01*
X250241Y403015D01*
X251136Y403354D01*
X251771Y404071D01*
X252000Y405000D01*
X402000Y395000D02*
X401771Y395929D01*
X401136Y396646D01*
X400241Y396985D01*
X399291Y396870D01*
X398503Y396326D01*
X398058Y395479D01*
Y394521D01*
X398503Y393674D01*
X399291Y393130D01*
X400241Y393015D01*
X401136Y393354D01*
X401771Y394071D01*
X402000Y395000D01*
Y425000D02*
X401771Y425929D01*
X401136Y426646D01*
X400241Y426985D01*
X399291Y426870D01*
X398503Y426326D01*
X398058Y425479D01*
Y424521D01*
X398503Y423674D01*
X399291Y423130D01*
X400241Y423015D01*
X401136Y423354D01*
X401771Y424071D01*
X402000Y425000D01*
X507000Y410000D02*
X506771Y410929D01*
X506136Y411646D01*
X505241Y411985D01*
X504291Y411870D01*
X503503Y411326D01*
X503058Y410479D01*
Y409521D01*
X503503Y408674D01*
X504291Y408130D01*
X505241Y408015D01*
X506136Y408354D01*
X506771Y409071D01*
X507000Y410000D01*
X537000D02*
X536771Y410929D01*
X536136Y411646D01*
X535241Y411985D01*
X534291Y411870D01*
X533503Y411326D01*
X533058Y410479D01*
Y409521D01*
X533503Y408674D01*
X534291Y408130D01*
X535241Y408015D01*
X536136Y408354D01*
X536771Y409071D01*
X537000Y410000D01*
X332000Y305000D02*
X331771Y305929D01*
X331136Y306646D01*
X330241Y306985D01*
X329291Y306870D01*
X328503Y306326D01*
X328058Y305479D01*
Y304521D01*
X328503Y303674D01*
X329291Y303130D01*
X330241Y303015D01*
X331136Y303354D01*
X331771Y304071D01*
X332000Y305000D01*
Y335000D02*
X331771Y335929D01*
X331136Y336646D01*
X330241Y336985D01*
X329291Y336870D01*
X328503Y336326D01*
X328058Y335479D01*
Y334521D01*
X328503Y333674D01*
X329291Y333130D01*
X330241Y333015D01*
X331136Y333354D01*
X331771Y334071D01*
X332000Y335000D01*
X497000Y460000D02*
X496771Y460929D01*
X496136Y461646D01*
X495241Y461985D01*
X494291Y461870D01*
X493503Y461326D01*
X493058Y460479D01*
Y459521D01*
X493503Y458674D01*
X494291Y458130D01*
X495241Y458015D01*
X496136Y458354D01*
X496771Y459071D01*
X497000Y460000D01*
X527000D02*
X526771Y460929D01*
X526136Y461646D01*
X525241Y461985D01*
X524291Y461870D01*
X523503Y461326D01*
X523058Y460479D01*
Y459521D01*
X523503Y458674D01*
X524291Y458130D01*
X525241Y458015D01*
X526136Y458354D01*
X526771Y459071D01*
X527000Y460000D01*
X467000Y410000D02*
X466771Y410929D01*
X466136Y411646D01*
X465241Y411985D01*
X464291Y411870D01*
X463503Y411326D01*
X463058Y410479D01*
Y409521D01*
X463503Y408674D01*
X464291Y408130D01*
X465241Y408015D01*
X466136Y408354D01*
X466771Y409071D01*
X467000Y410000D01*
X437000D02*
X436771Y410929D01*
X436136Y411646D01*
X435241Y411985D01*
X434291Y411870D01*
X433503Y411326D01*
X433058Y410479D01*
Y409521D01*
X433503Y408674D01*
X434291Y408130D01*
X435241Y408015D01*
X436136Y408354D01*
X436771Y409071D01*
X437000Y410000D01*
X377000Y380000D02*
X376771Y380929D01*
X376136Y381646D01*
X375241Y381985D01*
X374291Y381870D01*
X373503Y381326D01*
X373058Y380479D01*
Y379521D01*
X373503Y378674D01*
X374291Y378130D01*
X375241Y378015D01*
X376136Y378354D01*
X376771Y379071D01*
X377000Y380000D01*
X347000D02*
X346771Y380929D01*
X346136Y381646D01*
X345241Y381985D01*
X344291Y381870D01*
X343503Y381326D01*
X343058Y380479D01*
Y379521D01*
X343503Y378674D01*
X344291Y378130D01*
X345241Y378015D01*
X346136Y378354D01*
X346771Y379071D01*
X347000Y380000D01*
X367000Y420000D02*
X366771Y420929D01*
X366136Y421646D01*
X365241Y421985D01*
X364291Y421870D01*
X363503Y421326D01*
X363058Y420479D01*
Y419521D01*
X363503Y418674D01*
X364291Y418130D01*
X365241Y418015D01*
X366136Y418354D01*
X366771Y419071D01*
X367000Y420000D01*
X337000D02*
X336771Y420929D01*
X336136Y421646D01*
X335241Y421985D01*
X334291Y421870D01*
X333503Y421326D01*
X333058Y420479D01*
Y419521D01*
X333503Y418674D01*
X334291Y418130D01*
X335241Y418015D01*
X336136Y418354D01*
X336771Y419071D01*
X337000Y420000D01*
M02*
