G04 Layer_Color=255*
%FSLAX25Y25*%
%MOIN*%
G70*
G01*
G75*
%ADD11C,0.04724*%
%ADD12C,0.05512*%
%ADD13C,0.05906*%
%ADD14R,0.05906X0.05906*%
%ADD15O,0.03937X0.07874*%
%ADD16O,0.03937X0.07874*%
%ADD17C,0.05118*%
%ADD18O,0.07874X0.06299*%
%ADD19R,0.07874X0.06299*%
%ADD20R,0.05906X0.05906*%
%ADD21R,0.07284X0.07284*%
%ADD22C,0.07284*%
D11*
X240000Y345000D02*
D03*
Y315000D02*
D03*
X290000Y345000D02*
D03*
Y315000D02*
D03*
X530000Y305000D02*
D03*
Y275000D02*
D03*
X235000Y190000D02*
D03*
X265000D02*
D03*
X240000Y265000D02*
D03*
Y235000D02*
D03*
X290000Y265000D02*
D03*
Y235000D02*
D03*
D12*
X300000Y375000D02*
D03*
Y405000D02*
D03*
X250000Y375000D02*
D03*
Y405000D02*
D03*
X400000Y395000D02*
D03*
Y425000D02*
D03*
X505000Y410000D02*
D03*
X535000D02*
D03*
X330000Y305000D02*
D03*
Y335000D02*
D03*
X495000Y460000D02*
D03*
X525000D02*
D03*
X465000Y410000D02*
D03*
X435000D02*
D03*
X375000Y380000D02*
D03*
X345000D02*
D03*
X365000Y420000D02*
D03*
X335000D02*
D03*
D13*
X500000Y370000D02*
D03*
Y360000D02*
D03*
Y350000D02*
D03*
X523976Y190000D02*
D03*
Y230000D02*
D03*
X460000Y240000D02*
D03*
Y230000D02*
D03*
Y220000D02*
D03*
Y210000D02*
D03*
Y200000D02*
D03*
Y190000D02*
D03*
Y180000D02*
D03*
D14*
X500000Y340000D02*
D03*
X460000Y250000D02*
D03*
D15*
X445000Y360000D02*
D03*
X435000D02*
D03*
X445000Y300000D02*
D03*
X435000D02*
D03*
D16*
X440000Y360000D02*
D03*
Y300000D02*
D03*
D17*
X323898Y190000D02*
D03*
X336102D02*
D03*
D18*
X400039Y200748D02*
D03*
Y210748D02*
D03*
Y220748D02*
D03*
Y230748D02*
D03*
Y240748D02*
D03*
Y250748D02*
D03*
Y260748D02*
D03*
Y270748D02*
D03*
Y280748D02*
D03*
Y290748D02*
D03*
Y300748D02*
D03*
Y310748D02*
D03*
Y320748D02*
D03*
Y330748D02*
D03*
X370039Y200748D02*
D03*
Y210748D02*
D03*
Y220748D02*
D03*
Y230748D02*
D03*
Y240748D02*
D03*
Y250748D02*
D03*
Y260748D02*
D03*
Y270748D02*
D03*
Y280748D02*
D03*
Y290748D02*
D03*
Y300748D02*
D03*
Y310748D02*
D03*
Y320748D02*
D03*
D19*
X370000Y330000D02*
D03*
D20*
X496024Y190000D02*
D03*
Y230000D02*
D03*
D21*
X240000Y480000D02*
D03*
X330000D02*
D03*
X430000D02*
D03*
D22*
X240000Y460000D02*
D03*
X330000D02*
D03*
X430000D02*
D03*
M02*
