M48
;Layer_Color=9474304
;FILE_FORMAT=2:5
INCH,LZ
;TYPE=PLATED
T1F00S00C0.02756
T2F00S00C0.02800
T3F00S00C0.03346
T4F00S00C0.03543
T5F00S00C0.04331
%
T01
X053Y0275
Y0305
X0336102Y019
X0323898
X0265
X0235
X024Y0235
Y0265
X029
Y0235
Y0315
Y0345
X024
Y0315
T02
X05105Y02855
X053Y0295
X0415Y041
T03
X033Y0305
X03Y0375
Y0405
X025
Y0375
X0345Y038
X0375
X04Y0395
Y0425
X0365Y042
X0335
X033Y0335
X0435Y041
X0465
X0505
X0535
X0525Y046
X0495
T04
X0496024Y019
X0523976
Y023
X0496024
X046
Y024
Y025
Y022
Y021
Y02
Y019
Y018
X0445Y03
X044
X0435
Y036
X044
X0445
X05
Y037
Y035
Y034
T05
X0370039Y0200748
Y0210748
Y0220748
Y0230748
Y0240748
Y0250748
Y0260748
Y0270748
Y0280748
Y0290748
Y0300748
Y0310748
X0400039
Y0300748
Y0290748
Y0280748
Y0270748
Y0260748
Y0250748
Y0240748
Y0230748
Y0220748
Y0210748
Y0200748
X024Y046
X033
X043
X0400039Y0330748
Y0320748
X0370039
X037Y033
X033Y048
X043
X024
M30
