G04 Layer_Color=65535*
%FSLAX25Y25*%
%MOIN*%
G70*
G01*
G75*
%ADD10C,0.01000*%
%ADD24C,0.00984*%
%ADD25C,0.00787*%
%ADD26R,0.03150X0.07480*%
D10*
X223999Y334998D02*
X222999Y335998D01*
X221000D01*
X220000Y334998D01*
Y331000D01*
X221000Y330000D01*
X222999D01*
X223999Y331000D01*
X229997Y335998D02*
X227997Y334998D01*
X225998Y332999D01*
Y331000D01*
X226998Y330000D01*
X228997D01*
X229997Y331000D01*
Y331999D01*
X228997Y332999D01*
X225998D01*
X263999Y334998D02*
X262999Y335998D01*
X261000D01*
X260000Y334998D01*
Y331000D01*
X261000Y330000D01*
X262999D01*
X263999Y331000D01*
X268997Y330000D02*
Y335998D01*
X265998Y332999D01*
X269997D01*
X280000Y400000D02*
Y405998D01*
X282999D01*
X283999Y404998D01*
Y402999D01*
X282999Y401999D01*
X280000D01*
X281999D02*
X283999Y400000D01*
X285998Y404998D02*
X286998Y405998D01*
X288997D01*
X289997Y404998D01*
Y403999D01*
X288997Y402999D01*
X289997Y401999D01*
Y401000D01*
X288997Y400000D01*
X286998D01*
X285998Y401000D01*
Y401999D01*
X286998Y402999D01*
X285998Y403999D01*
Y404998D01*
X286998Y402999D02*
X288997D01*
X230000Y410000D02*
Y415998D01*
X232999D01*
X233999Y414998D01*
Y412999D01*
X232999Y411999D01*
X230000D01*
X231999D02*
X233999Y410000D01*
X235998Y415998D02*
X239997D01*
Y414998D01*
X235998Y411000D01*
Y410000D01*
X390000Y440000D02*
Y445998D01*
X392999D01*
X393999Y444998D01*
Y442999D01*
X392999Y441999D01*
X390000D01*
X391999D02*
X393999Y440000D01*
X395998Y441000D02*
X396998Y440000D01*
X398997D01*
X399997Y441000D01*
Y444998D01*
X398997Y445998D01*
X396998D01*
X395998Y444998D01*
Y443999D01*
X396998Y442999D01*
X399997D01*
X490000Y420000D02*
Y425998D01*
X492999D01*
X493999Y424998D01*
Y422999D01*
X492999Y421999D01*
X490000D01*
X491999D02*
X493999Y420000D01*
X499997D02*
X495998D01*
X499997Y423999D01*
Y424998D01*
X498997Y425998D01*
X496998D01*
X495998Y424998D01*
X490000Y380000D02*
Y385998D01*
X492999D01*
X493999Y384998D01*
Y382999D01*
X492999Y381999D01*
X490000D01*
X495998Y380000D02*
X497997D01*
X496998D01*
Y385998D01*
X495998Y384998D01*
X463999Y361000D02*
Y364998D01*
X462999Y365998D01*
X461000D01*
X460000Y364998D01*
Y361000D01*
X461000Y360000D01*
X462999D01*
X461999Y361999D02*
X463999Y360000D01*
X462999D02*
X463999Y361000D01*
X465998Y360000D02*
X467997D01*
X466998D01*
Y365998D01*
X465998Y364998D01*
X523999Y324998D02*
X522999Y325998D01*
X521000D01*
X520000Y324998D01*
Y321000D01*
X521000Y320000D01*
X522999D01*
X523999Y321000D01*
X525998Y324998D02*
X526998Y325998D01*
X528997D01*
X529997Y324998D01*
Y323999D01*
X528997Y322999D01*
X527997D01*
X528997D01*
X529997Y321999D01*
Y321000D01*
X528997Y320000D01*
X526998D01*
X525998Y321000D01*
X223999Y204998D02*
X222999Y205998D01*
X221000D01*
X220000Y204998D01*
Y201000D01*
X221000Y200000D01*
X222999D01*
X223999Y201000D01*
X225998Y200000D02*
X227997D01*
X226998D01*
Y205998D01*
X225998Y204998D01*
X223999Y284998D02*
X222999Y285998D01*
X221000D01*
X220000Y284998D01*
Y281000D01*
X221000Y280000D01*
X222999D01*
X223999Y281000D01*
X229997Y280000D02*
X225998D01*
X229997Y283999D01*
Y284998D01*
X228997Y285998D01*
X226998D01*
X225998Y284998D01*
X355998Y200000D02*
X354998D01*
X352999Y198001D01*
X354998Y196001D01*
X355998D01*
X352999Y198001D02*
X350000D01*
Y194002D02*
Y192003D01*
Y193002D01*
X355998D01*
X354998Y194002D01*
X273999Y284998D02*
X272999Y285998D01*
X271000D01*
X270000Y284998D01*
Y281000D01*
X271000Y280000D01*
X272999D01*
X273999Y281000D01*
X279997Y285998D02*
X275998D01*
Y282999D01*
X277997Y283999D01*
X278997D01*
X279997Y282999D01*
Y281000D01*
X278997Y280000D01*
X276998D01*
X275998Y281000D01*
X390000Y345998D02*
Y341000D01*
X391000Y340000D01*
X392999D01*
X393999Y341000D01*
Y345998D01*
X395998Y340000D02*
X397997D01*
X396998D01*
Y345998D01*
X395998Y344998D01*
X443999Y484998D02*
X442999Y485998D01*
X441000D01*
X440000Y484998D01*
Y483999D01*
X441000Y482999D01*
X442999D01*
X443999Y481999D01*
Y481000D01*
X442999Y480000D01*
X441000D01*
X440000Y481000D01*
X445998Y484998D02*
X446998Y485998D01*
X448997D01*
X449997Y484998D01*
Y483999D01*
X448997Y482999D01*
X447997D01*
X448997D01*
X449997Y481999D01*
Y481000D01*
X448997Y480000D01*
X446998D01*
X445998Y481000D01*
X353999Y494998D02*
X352999Y495998D01*
X351000D01*
X350000Y494998D01*
Y493999D01*
X351000Y492999D01*
X352999D01*
X353999Y491999D01*
Y491000D01*
X352999Y490000D01*
X351000D01*
X350000Y491000D01*
X359997Y490000D02*
X355998D01*
X359997Y493999D01*
Y494998D01*
X358997Y495998D01*
X356998D01*
X355998Y494998D01*
X253999D02*
X252999Y495998D01*
X251000D01*
X250000Y494998D01*
Y493999D01*
X251000Y492999D01*
X252999D01*
X253999Y491999D01*
Y491000D01*
X252999Y490000D01*
X251000D01*
X250000Y491000D01*
X255998Y490000D02*
X257997D01*
X256998D01*
Y495998D01*
X255998Y494998D01*
X342800Y386400D02*
Y392398D01*
X345799D01*
X346799Y391398D01*
Y389399D01*
X345799Y388399D01*
X342800D01*
X344799D02*
X346799Y386400D01*
X352797Y392398D02*
X350797Y391398D01*
X348798Y389399D01*
Y387400D01*
X349798Y386400D01*
X351797D01*
X352797Y387400D01*
Y388399D01*
X351797Y389399D01*
X348798D01*
X332800Y426400D02*
Y432398D01*
X335799D01*
X336799Y431398D01*
Y429399D01*
X335799Y428399D01*
X332800D01*
X334799D02*
X336799Y426400D01*
X342797Y432398D02*
X338798D01*
Y429399D01*
X340797Y430399D01*
X341797D01*
X342797Y429399D01*
Y427400D01*
X341797Y426400D01*
X339798D01*
X338798Y427400D01*
X432800Y416400D02*
Y422398D01*
X435799D01*
X436799Y421398D01*
Y419399D01*
X435799Y418399D01*
X432800D01*
X434799D02*
X436799Y416400D01*
X441797D02*
Y422398D01*
X438798Y419399D01*
X442797D01*
X492800Y466400D02*
Y472398D01*
X495799D01*
X496799Y471398D01*
Y469399D01*
X495799Y468399D01*
X492800D01*
X494799D02*
X496799Y466400D01*
X498798Y471398D02*
X499798Y472398D01*
X501797D01*
X502797Y471398D01*
Y470399D01*
X501797Y469399D01*
X500797D01*
X501797D01*
X502797Y468399D01*
Y467400D01*
X501797Y466400D01*
X499798D01*
X498798Y467400D01*
X327600Y341200D02*
Y347198D01*
X330599D01*
X331599Y346198D01*
Y344199D01*
X330599Y343199D01*
X327600D01*
X329599D02*
X331599Y341200D01*
X333598D02*
X335597D01*
X334598D01*
Y347198D01*
X333598Y346198D01*
X432899Y314200D02*
Y318198D01*
X431899Y319198D01*
X429900D01*
X428900Y318198D01*
Y314200D01*
X429900Y313200D01*
X431899D01*
X430899Y315199D02*
X432899Y313200D01*
X431899D02*
X432899Y314200D01*
X438897Y313200D02*
X434898D01*
X438897Y317199D01*
Y318198D01*
X437897Y319198D01*
X435898D01*
X434898Y318198D01*
X455600Y258400D02*
Y264398D01*
X458599D01*
X459599Y263398D01*
Y261399D01*
X458599Y260399D01*
X455600D01*
X465597Y258400D02*
X461598D01*
X465597Y262399D01*
Y263398D01*
X464597Y264398D01*
X462598D01*
X461598Y263398D01*
X493700Y243098D02*
Y237100D01*
X496699D01*
X497699Y238100D01*
Y242098D01*
X496699Y243098D01*
X493700D01*
X503697Y237100D02*
X499698D01*
X503697Y241099D01*
Y242098D01*
X502697Y243098D01*
X500698D01*
X499698Y242098D01*
X493700Y203098D02*
Y197100D01*
X496699D01*
X497699Y198100D01*
Y202098D01*
X496699Y203098D01*
X493700D01*
X499698Y197100D02*
X501697D01*
X500698D01*
Y203098D01*
X499698Y202098D01*
D24*
X429350Y354685D02*
X428612Y355111D01*
Y354259D01*
X429350Y354685D01*
Y294685D02*
X428612Y295111D01*
Y294259D01*
X429350Y294685D01*
X240488Y488744D02*
X239750Y489170D01*
Y488318D01*
X240488Y488744D01*
X330488D02*
X329750Y489170D01*
Y488318D01*
X330488Y488744D01*
X430488D02*
X429750Y489170D01*
Y488318D01*
X430488Y488744D01*
D25*
X447795Y354095D02*
X448362Y354929D01*
X448840Y355818D01*
X449224Y356751D01*
X449510Y357718D01*
X449694Y358710D01*
X449776Y359716D01*
X449753Y360725D01*
X449626Y361726D01*
X449397Y362708D01*
X449068Y363662D01*
X448642Y364577D01*
X448125Y365443D01*
X447521Y366251D01*
X446837Y366993D01*
X446080Y367660D01*
X445258Y368246D01*
X444381Y368744D01*
X443457Y369148D01*
X442496Y369456D01*
X441508Y369663D01*
X440505Y369767D01*
X439496D01*
X438492Y369663D01*
X437504Y369456D01*
X436543Y369148D01*
X435619Y368743D01*
X434742Y368246D01*
X433920Y367660D01*
X433163Y366993D01*
X432479Y366251D01*
X431875Y365443D01*
X431357Y364577D01*
X430932Y363662D01*
X430603Y362708D01*
X430374Y361726D01*
X430247Y360725D01*
X430225Y359716D01*
X430306Y358710D01*
X430490Y357718D01*
X430776Y356751D01*
X431160Y355818D01*
X431638Y354929D01*
X432205Y354095D01*
X325452Y185976D02*
X326206Y185252D01*
X327073Y184667D01*
X328027Y184239D01*
X329039Y183980D01*
X330082Y183898D01*
X331123Y183994D01*
X332132Y184268D01*
X333080Y184709D01*
X333938Y185306D01*
X334682Y186040D01*
X334643Y193960D02*
X333899Y194694D01*
X333040Y195291D01*
X332093Y195732D01*
X331083Y196005D01*
X330042Y196102D01*
X329000Y196020D01*
X327987Y195761D01*
X327033Y195333D01*
X326167Y194748D01*
X325413Y194024D01*
X382539Y335748D02*
X382730Y334791D01*
X383272Y333980D01*
X384083Y333438D01*
X385039Y333248D01*
X385996Y333438D01*
X386807Y333980D01*
X387349Y334791D01*
X387539Y335748D01*
X447795Y294094D02*
X448362Y294929D01*
X448840Y295818D01*
X449224Y296751D01*
X449510Y297718D01*
X449694Y298710D01*
X449776Y299716D01*
X449753Y300725D01*
X449626Y301726D01*
X449397Y302708D01*
X449068Y303662D01*
X448642Y304577D01*
X448125Y305443D01*
X447521Y306251D01*
X446837Y306993D01*
X446080Y307660D01*
X445258Y308246D01*
X444381Y308744D01*
X443457Y309148D01*
X442496Y309456D01*
X441508Y309663D01*
X440505Y309767D01*
X439496D01*
X438492Y309663D01*
X437504Y309456D01*
X436543Y309148D01*
X435619Y308744D01*
X434742Y308246D01*
X433920Y307660D01*
X433163Y306993D01*
X432479Y306251D01*
X431875Y305443D01*
X431357Y304577D01*
X430932Y303662D01*
X430603Y302708D01*
X430374Y301726D01*
X430247Y300725D01*
X430225Y299716D01*
X430306Y298710D01*
X430490Y297718D01*
X430776Y296751D01*
X431160Y295818D01*
X431638Y294929D01*
X432205Y294094D01*
X232500Y352500D02*
X247500D01*
Y307500D02*
Y352500D01*
X232500Y307500D02*
X247500D01*
X232500D02*
Y352500D01*
X282500D02*
X297500D01*
Y307500D02*
Y352500D01*
X282500Y307500D02*
X297500D01*
X282500D02*
Y352500D01*
X300000Y380000D02*
X303000D01*
Y400000D01*
X297000D02*
X303000D01*
X297000Y380000D02*
Y400000D01*
Y380000D02*
X300000D01*
Y400000D02*
Y400900D01*
Y379100D02*
Y380000D01*
X250000D02*
X253000D01*
Y400000D01*
X247000D02*
X253000D01*
X247000Y380000D02*
Y400000D01*
Y380000D02*
X250000D01*
Y400000D02*
Y400900D01*
Y379100D02*
Y380000D01*
X400000Y400000D02*
X403000D01*
Y420000D01*
X397000D02*
X403000D01*
X397000Y400000D02*
Y420000D01*
Y400000D02*
X400000D01*
Y420000D02*
Y420900D01*
Y399100D02*
Y400000D01*
X510000Y407000D02*
Y410000D01*
Y407000D02*
X530000D01*
Y413000D01*
X510000D02*
X530000D01*
X510000Y410000D02*
Y413000D01*
X530000Y410000D02*
X530900D01*
X509100D02*
X510000D01*
X495000Y335000D02*
X505000D01*
X495000D02*
Y375000D01*
X505000Y335000D02*
Y375000D01*
X495000D02*
X505000D01*
X432205Y354095D02*
X447795D01*
X522500Y312500D02*
X537500D01*
Y267500D02*
Y312500D01*
X522500Y267500D02*
X537500D01*
X522500D02*
Y312500D01*
X227500Y182500D02*
Y197500D01*
X272500D01*
Y182500D02*
Y197500D01*
X227500Y182500D02*
X272500D01*
X232500Y272500D02*
X247500D01*
Y227500D02*
Y272500D01*
X232500Y227500D02*
X247500D01*
X232500D02*
Y272500D01*
X282500D02*
X297500D01*
Y227500D02*
Y272500D01*
X282500Y227500D02*
X297500D01*
X282500D02*
Y272500D01*
X364665Y195965D02*
Y204498D01*
Y326998D02*
Y335748D01*
Y300748D02*
Y309498D01*
Y283248D02*
Y300748D01*
Y230748D02*
Y248248D01*
Y221998D02*
Y230748D01*
Y309498D02*
Y326998D01*
Y204498D02*
Y221998D01*
Y248248D02*
Y283248D01*
X405512Y195748D02*
Y335748D01*
X387933D02*
X405512D01*
X364665D02*
X382539D01*
X364882Y195748D02*
X405512D01*
X364665Y195965D02*
X364882Y195748D01*
X517677Y186260D02*
Y193740D01*
X502323Y186260D02*
X517677D01*
X502323Y193740D02*
X517677D01*
X330000Y310000D02*
X333000D01*
Y330000D01*
X327000D02*
X333000D01*
X327000Y310000D02*
Y330000D01*
Y310000D02*
X330000D01*
Y330000D02*
Y330900D01*
Y309100D02*
Y310000D01*
X517677Y226260D02*
Y233740D01*
X502323Y226260D02*
X517677D01*
X502323Y233740D02*
X517677D01*
X500000Y457000D02*
Y460000D01*
Y457000D02*
X520000D01*
Y463000D01*
X500000D02*
X520000D01*
X500000Y460000D02*
Y463000D01*
X520000Y460000D02*
X520900D01*
X499100D02*
X500000D01*
X460000Y410000D02*
Y413000D01*
X440000D02*
X460000D01*
X440000Y407000D02*
Y413000D01*
Y407000D02*
X460000D01*
Y410000D01*
X439100D02*
X440000D01*
X460000D02*
X460900D01*
X370000Y380000D02*
Y383000D01*
X350000D02*
X370000D01*
X350000Y377000D02*
Y383000D01*
Y377000D02*
X370000D01*
Y380000D01*
X349100D02*
X350000D01*
X370000D02*
X370900D01*
X360000Y420000D02*
Y423000D01*
X340000D02*
X360000D01*
X340000Y417000D02*
Y423000D01*
Y417000D02*
X360000D01*
Y420000D01*
X339100D02*
X340000D01*
X360000D02*
X360900D01*
X432205Y294095D02*
X447795D01*
X455000Y175000D02*
X465000D01*
X455000D02*
Y255000D01*
X465000D01*
Y175000D02*
Y255000D01*
X245000Y453150D02*
Y486850D01*
X235000Y453150D02*
X245000D01*
X235000D02*
Y486850D01*
X245000D01*
X335000Y453150D02*
Y486850D01*
X325000Y453150D02*
X335000D01*
X325000D02*
Y486850D01*
X335000D01*
X435000Y453150D02*
Y486850D01*
X425000Y453150D02*
X435000D01*
X425000D02*
Y486850D01*
X435000D01*
D26*
X503504Y190000D02*
D03*
Y230000D02*
D03*
M02*
