G04 Layer_Color=16711935*
%FSLAX25Y25*%
%MOIN*%
G70*
G01*
G75*
%ADD38C,0.00394*%
D38*
X292795Y319094D02*
X293362Y319929D01*
X293840Y320818D01*
X294224Y321751D01*
X294510Y322718D01*
X294694Y323710D01*
X294776Y324716D01*
X294753Y325725D01*
X294626Y326726D01*
X294397Y327708D01*
X294068Y328662D01*
X293642Y329577D01*
X293125Y330443D01*
X292521Y331251D01*
X291837Y331993D01*
X291080Y332660D01*
X290258Y333246D01*
X289381Y333744D01*
X288457Y334148D01*
X287496Y334456D01*
X286508Y334663D01*
X285505Y334767D01*
X284495D01*
X283492Y334663D01*
X282504Y334456D01*
X281543Y334148D01*
X280619Y333744D01*
X279742Y333246D01*
X278920Y332660D01*
X278163Y331993D01*
X277479Y331251D01*
X276875Y330443D01*
X276358Y329577D01*
X275932Y328662D01*
X275603Y327708D01*
X275374Y326726D01*
X275247Y325725D01*
X275224Y324716D01*
X275306Y323710D01*
X275490Y322718D01*
X275776Y321751D01*
X276160Y320818D01*
X276638Y319929D01*
X277205Y319094D01*
X292795Y289094D02*
X293362Y289929D01*
X293840Y290818D01*
X294224Y291751D01*
X294510Y292718D01*
X294694Y293710D01*
X294776Y294716D01*
X294753Y295725D01*
X294626Y296726D01*
X294397Y297708D01*
X294068Y298662D01*
X293642Y299577D01*
X293125Y300443D01*
X292521Y301251D01*
X291837Y301993D01*
X291080Y302660D01*
X290258Y303246D01*
X289381Y303744D01*
X288457Y304148D01*
X287496Y304456D01*
X286508Y304663D01*
X285505Y304767D01*
X284495D01*
X283492Y304663D01*
X282504Y304456D01*
X281543Y304148D01*
X280619Y303744D01*
X279742Y303246D01*
X278920Y302660D01*
X278163Y301993D01*
X277479Y301251D01*
X276875Y300443D01*
X276358Y299577D01*
X275932Y298662D01*
X275603Y297708D01*
X275374Y296726D01*
X275247Y295725D01*
X275224Y294716D01*
X275306Y293710D01*
X275490Y292718D01*
X275776Y291751D01*
X276160Y290818D01*
X276638Y289929D01*
X277205Y289094D01*
X277205Y319095D02*
X292795D01*
X277205Y289095D02*
X292795D01*
M02*
