G04 Layer_Physical_Order=2*
G04 Layer_Color=16711680*
%FSLAX25Y25*%
%MOIN*%
G70*
G01*
G75*
%ADD10C,0.01000*%
%ADD11O,0.03937X0.07874*%
%ADD12O,0.03937X0.07874*%
%ADD13R,0.05906X0.05906*%
%ADD14C,0.05906*%
%ADD15R,0.05906X0.05906*%
%ADD16C,0.04724*%
%ADD17R,0.07284X0.07284*%
%ADD18C,0.07284*%
%ADD19O,0.07874X0.06299*%
%ADD20R,0.07874X0.06299*%
%ADD21C,0.05512*%
G36*
X107500Y493471D02*
X305000D01*
Y493469D01*
X305371Y493395D01*
X305685Y493185D01*
X305895Y492871D01*
X305969Y492500D01*
X305971D01*
Y155000D01*
X305976Y154972D01*
X305861Y154099D01*
X305514Y153260D01*
X304961Y152539D01*
X304240Y151986D01*
X304167Y151956D01*
X105833D01*
X105760Y151986D01*
X105039Y152539D01*
X104486Y153260D01*
X104139Y154099D01*
X104024Y154972D01*
X104029Y155000D01*
Y490000D01*
X104024Y490028D01*
X104139Y490901D01*
X104486Y491740D01*
X105039Y492461D01*
X105760Y493014D01*
X106599Y493361D01*
X107472Y493476D01*
X107500Y493471D01*
D02*
G37*
%LPC*%
G36*
X298976Y276487D02*
X297944Y276351D01*
X296983Y275953D01*
X296157Y275319D01*
X295524Y274493D01*
X295125Y273532D01*
X294989Y272500D01*
X295125Y271468D01*
X295524Y270507D01*
X296157Y269681D01*
X296983Y269047D01*
X297944Y268649D01*
X298976Y268513D01*
X300008Y268649D01*
X300970Y269047D01*
X301796Y269681D01*
X302429Y270507D01*
X302827Y271468D01*
X302963Y272500D01*
X302827Y273532D01*
X302429Y274493D01*
X301796Y275319D01*
X300970Y275953D01*
X300008Y276351D01*
X298976Y276487D01*
D02*
G37*
G36*
X243327Y274933D02*
X241752D01*
X240669Y274791D01*
X239659Y274373D01*
X238792Y273708D01*
X238127Y272841D01*
X237709Y271831D01*
X237567Y270748D01*
X237709Y269665D01*
X238127Y268655D01*
X238792Y267789D01*
X239659Y267123D01*
X240669Y266705D01*
X241752Y266563D01*
X243327D01*
X244410Y266705D01*
X245420Y267123D01*
X246286Y267789D01*
X246952Y268655D01*
X247370Y269665D01*
X247512Y270748D01*
X247370Y271831D01*
X246952Y272841D01*
X246286Y273708D01*
X245420Y274373D01*
X244410Y274791D01*
X243327Y274933D01*
D02*
G37*
G36*
X274976Y256453D02*
X267071D01*
Y248547D01*
X274976D01*
Y256453D01*
D02*
G37*
G36*
Y276453D02*
X267071D01*
Y268547D01*
X274976D01*
Y276453D01*
D02*
G37*
G36*
X243327Y324933D02*
X241752D01*
X240669Y324791D01*
X239659Y324373D01*
X238792Y323708D01*
X238127Y322841D01*
X237709Y321831D01*
X237567Y320748D01*
X237709Y319665D01*
X238127Y318655D01*
X238792Y317789D01*
X239659Y317123D01*
X240669Y316705D01*
X241752Y316563D01*
X243327D01*
X244410Y316705D01*
X245420Y317123D01*
X246286Y317789D01*
X246952Y318655D01*
X247370Y319665D01*
X247512Y320748D01*
X247370Y321831D01*
X246952Y322841D01*
X246286Y323708D01*
X245420Y324373D01*
X244410Y324791D01*
X243327Y324933D01*
D02*
G37*
G36*
Y314933D02*
X241752D01*
X240669Y314791D01*
X239659Y314373D01*
X238792Y313707D01*
X238127Y312841D01*
X237709Y311831D01*
X237567Y310748D01*
X237709Y309665D01*
X238127Y308655D01*
X238792Y307788D01*
X239659Y307123D01*
X240669Y306705D01*
X241752Y306563D01*
X243327D01*
X244410Y306705D01*
X245420Y307123D01*
X246286Y307788D01*
X246952Y308655D01*
X247370Y309665D01*
X247512Y310748D01*
X247370Y311831D01*
X246952Y312841D01*
X246286Y313707D01*
X245420Y314373D01*
X244410Y314791D01*
X243327Y314933D01*
D02*
G37*
G36*
Y304933D02*
X241752D01*
X240669Y304791D01*
X239659Y304373D01*
X238792Y303708D01*
X238127Y302841D01*
X237709Y301831D01*
X237567Y300748D01*
X237709Y299665D01*
X238127Y298655D01*
X238792Y297789D01*
X239659Y297123D01*
X240669Y296705D01*
X241752Y296563D01*
X243327D01*
X244410Y296705D01*
X245420Y297123D01*
X246286Y297789D01*
X246952Y298655D01*
X247370Y299665D01*
X247512Y300748D01*
X247370Y301831D01*
X246952Y302841D01*
X246286Y303708D01*
X245420Y304373D01*
X244410Y304791D01*
X243327Y304933D01*
D02*
G37*
G36*
X213327Y194933D02*
X211752D01*
X210669Y194791D01*
X209659Y194373D01*
X208792Y193708D01*
X208127Y192841D01*
X207709Y191831D01*
X207567Y190748D01*
X207709Y189665D01*
X208127Y188655D01*
X208792Y187788D01*
X209659Y187123D01*
X210669Y186705D01*
X211752Y186563D01*
X213327D01*
X214410Y186705D01*
X215420Y187123D01*
X216286Y187788D01*
X216951Y188655D01*
X217370Y189665D01*
X217512Y190748D01*
X217370Y191831D01*
X216951Y192841D01*
X216286Y193708D01*
X215420Y194373D01*
X214410Y194791D01*
X213327Y194933D01*
D02*
G37*
G36*
X243327D02*
X241752D01*
X240669Y194791D01*
X239659Y194373D01*
X238792Y193708D01*
X238127Y192841D01*
X237709Y191831D01*
X237567Y190748D01*
X237709Y189665D01*
X238127Y188655D01*
X238792Y187788D01*
X239659Y187123D01*
X240669Y186705D01*
X241752Y186563D01*
X243327D01*
X244410Y186705D01*
X244417Y186708D01*
X249706Y181419D01*
X250202Y181087D01*
X250787Y180971D01*
X283855D01*
X284047Y180507D01*
X284681Y179681D01*
X285507Y179047D01*
X286468Y178649D01*
X287500Y178513D01*
X288532Y178649D01*
X289493Y179047D01*
X290319Y179681D01*
X290953Y180507D01*
X291351Y181468D01*
X291487Y182500D01*
X291351Y183532D01*
X290953Y184493D01*
X290319Y185319D01*
X289493Y185953D01*
X288532Y186351D01*
X287500Y186487D01*
X286468Y186351D01*
X285507Y185953D01*
X284681Y185319D01*
X284047Y184493D01*
X283855Y184029D01*
X251421D01*
X246884Y188567D01*
X246952Y188655D01*
X247370Y189665D01*
X247512Y190748D01*
X247370Y191831D01*
X246952Y192841D01*
X246286Y193708D01*
X245420Y194373D01*
X244410Y194791D01*
X243327Y194933D01*
D02*
G37*
G36*
X170000Y183391D02*
X169122Y183276D01*
X168304Y182937D01*
X167602Y182398D01*
X167063Y181696D01*
X166724Y180878D01*
X166609Y180000D01*
X166724Y179122D01*
X167063Y178304D01*
X167602Y177602D01*
X168304Y177063D01*
X169122Y176724D01*
X170000Y176609D01*
X170878Y176724D01*
X171696Y177063D01*
X172398Y177602D01*
X172937Y178304D01*
X173276Y179122D01*
X173391Y180000D01*
X173276Y180878D01*
X172937Y181696D01*
X172398Y182398D01*
X171696Y182937D01*
X170878Y183276D01*
X170000Y183391D01*
D02*
G37*
G36*
X243327Y204933D02*
X241752D01*
X240669Y204791D01*
X239659Y204373D01*
X238792Y203708D01*
X238127Y202841D01*
X237709Y201831D01*
X237567Y200748D01*
X237709Y199665D01*
X238127Y198655D01*
X238792Y197789D01*
X239659Y197123D01*
X240669Y196705D01*
X241752Y196563D01*
X243327D01*
X244410Y196705D01*
X245420Y197123D01*
X246286Y197789D01*
X246952Y198655D01*
X247185Y199219D01*
X264467D01*
X272267Y191419D01*
X272763Y191087D01*
X273348Y190971D01*
X283855D01*
X284047Y190507D01*
X284681Y189681D01*
X285507Y189047D01*
X286468Y188649D01*
X287500Y188513D01*
X288532Y188649D01*
X289493Y189047D01*
X290319Y189681D01*
X290953Y190507D01*
X291351Y191468D01*
X291487Y192500D01*
X291351Y193532D01*
X290953Y194493D01*
X290319Y195319D01*
X289493Y195953D01*
X288532Y196351D01*
X287500Y196487D01*
X286468Y196351D01*
X285507Y195953D01*
X284681Y195319D01*
X284047Y194493D01*
X283855Y194029D01*
X273981D01*
X266181Y201829D01*
X265685Y202161D01*
X265100Y202277D01*
X247185D01*
X246952Y202841D01*
X246286Y203708D01*
X245420Y204373D01*
X244410Y204791D01*
X243327Y204933D01*
D02*
G37*
G36*
Y254933D02*
X241752D01*
X240669Y254791D01*
X239659Y254373D01*
X238792Y253708D01*
X238127Y252841D01*
X237709Y251831D01*
X237567Y250748D01*
X237709Y249665D01*
X238127Y248655D01*
X238792Y247789D01*
X239659Y247123D01*
X240669Y246705D01*
X241752Y246563D01*
X243327D01*
X244410Y246705D01*
X245420Y247123D01*
X246286Y247789D01*
X246952Y248655D01*
X247370Y249665D01*
X247512Y250748D01*
X247370Y251831D01*
X246952Y252841D01*
X246286Y253708D01*
X245420Y254373D01*
X244410Y254791D01*
X243327Y254933D01*
D02*
G37*
G36*
Y214933D02*
X241752D01*
X240669Y214791D01*
X239659Y214373D01*
X238792Y213707D01*
X238127Y212841D01*
X237709Y211831D01*
X237567Y210748D01*
X237709Y209665D01*
X238127Y208655D01*
X238792Y207788D01*
X239659Y207123D01*
X240669Y206705D01*
X241752Y206563D01*
X243327D01*
X244410Y206705D01*
X245420Y207123D01*
X246286Y207788D01*
X246952Y208655D01*
X247185Y209219D01*
X265466D01*
X273267Y201419D01*
X273763Y201087D01*
X274348Y200971D01*
X283855D01*
X284047Y200507D01*
X284681Y199681D01*
X285507Y199047D01*
X286468Y198649D01*
X287500Y198513D01*
X288532Y198649D01*
X289493Y199047D01*
X290319Y199681D01*
X290953Y200507D01*
X291351Y201468D01*
X291487Y202500D01*
X291351Y203532D01*
X290953Y204493D01*
X290319Y205319D01*
X289493Y205953D01*
X288532Y206351D01*
X287500Y206487D01*
X286468Y206351D01*
X285507Y205953D01*
X284681Y205319D01*
X284047Y204493D01*
X283855Y204029D01*
X274981D01*
X267181Y211829D01*
X266685Y212161D01*
X266100Y212277D01*
X247185D01*
X246952Y212841D01*
X246286Y213707D01*
X245420Y214373D01*
X244410Y214791D01*
X243327Y214933D01*
D02*
G37*
G36*
X213327Y204933D02*
X211752D01*
X210669Y204791D01*
X209659Y204373D01*
X208792Y203708D01*
X208127Y202841D01*
X207709Y201831D01*
X207567Y200748D01*
X207709Y199665D01*
X208127Y198655D01*
X208792Y197789D01*
X209659Y197123D01*
X210669Y196705D01*
X211752Y196563D01*
X213327D01*
X214410Y196705D01*
X215420Y197123D01*
X216286Y197789D01*
X216951Y198655D01*
X217370Y199665D01*
X217512Y200748D01*
X217370Y201831D01*
X216951Y202841D01*
X216286Y203708D01*
X215420Y204373D01*
X214410Y204791D01*
X213327Y204933D01*
D02*
G37*
G36*
X177500Y464682D02*
X176288Y464522D01*
X175159Y464054D01*
X174189Y463310D01*
X173445Y462341D01*
X172978Y461212D01*
X172818Y460000D01*
X172978Y458788D01*
X173445Y457659D01*
X174189Y456690D01*
X175159Y455945D01*
X176288Y455478D01*
X177500Y455318D01*
X178712Y455478D01*
X179841Y455945D01*
X180810Y456690D01*
X181554Y457659D01*
X182022Y458788D01*
X182182Y460000D01*
X182022Y461212D01*
X181554Y462341D01*
X180810Y463310D01*
X179841Y464054D01*
X178712Y464522D01*
X177500Y464682D01*
D02*
G37*
G36*
X227500D02*
X226288Y464522D01*
X225159Y464054D01*
X224189Y463310D01*
X223446Y462341D01*
X222978Y461212D01*
X222818Y460000D01*
X222978Y458788D01*
X223446Y457659D01*
X224189Y456690D01*
X225159Y455945D01*
X226288Y455478D01*
X227500Y455318D01*
X228712Y455478D01*
X229841Y455945D01*
X230810Y456690D01*
X231555Y457659D01*
X232022Y458788D01*
X232182Y460000D01*
X232022Y461212D01*
X231555Y462341D01*
X230810Y463310D01*
X229841Y464054D01*
X228712Y464522D01*
X227500Y464682D01*
D02*
G37*
G36*
X212500Y403788D02*
X211520Y403659D01*
X210606Y403281D01*
X209821Y402679D01*
X209219Y401894D01*
X208841Y400981D01*
X208712Y400000D01*
X208841Y399020D01*
X209219Y398106D01*
X209821Y397321D01*
X210606Y396719D01*
X211520Y396341D01*
X212500Y396212D01*
X213480Y396341D01*
X214394Y396719D01*
X215179Y397321D01*
X215781Y398106D01*
X216159Y399020D01*
X216288Y400000D01*
X216159Y400981D01*
X215781Y401894D01*
X215179Y402679D01*
X214394Y403281D01*
X213480Y403659D01*
X212500Y403788D01*
D02*
G37*
G36*
X262500D02*
X261520Y403659D01*
X260606Y403281D01*
X259821Y402679D01*
X259219Y401894D01*
X258841Y400981D01*
X258712Y400000D01*
X258841Y399020D01*
X259219Y398106D01*
X259821Y397321D01*
X260606Y396719D01*
X261520Y396341D01*
X262500Y396212D01*
X263480Y396341D01*
X264394Y396719D01*
X265179Y397321D01*
X265781Y398106D01*
X266159Y399020D01*
X266288Y400000D01*
X266159Y400981D01*
X265781Y401894D01*
X265179Y402679D01*
X264394Y403281D01*
X263480Y403659D01*
X262500Y403788D01*
D02*
G37*
G36*
X130000Y464682D02*
X128788Y464522D01*
X127659Y464054D01*
X126690Y463310D01*
X125945Y462341D01*
X125478Y461212D01*
X125318Y460000D01*
X125478Y458788D01*
X125945Y457659D01*
X126690Y456690D01*
X127659Y455945D01*
X128788Y455478D01*
X130000Y455318D01*
X131212Y455478D01*
X132341Y455945D01*
X133310Y456690D01*
X134055Y457659D01*
X134522Y458788D01*
X134682Y460000D01*
X134522Y461212D01*
X134055Y462341D01*
X133310Y463310D01*
X132341Y464054D01*
X131212Y464522D01*
X130000Y464682D01*
D02*
G37*
G36*
X232800Y436229D02*
X192200D01*
X191615Y436113D01*
X191119Y435781D01*
X188845Y433508D01*
X188480Y433659D01*
X187500Y433788D01*
X186520Y433659D01*
X185606Y433281D01*
X184821Y432679D01*
X184219Y431894D01*
X183841Y430980D01*
X183712Y430000D01*
X183841Y429019D01*
X184219Y428106D01*
X184821Y427321D01*
X185606Y426719D01*
X186520Y426341D01*
X187500Y426212D01*
X188480Y426341D01*
X189394Y426719D01*
X190179Y427321D01*
X190781Y428106D01*
X191159Y429019D01*
X191288Y430000D01*
X191159Y430980D01*
X191008Y431345D01*
X192833Y433171D01*
X232167D01*
X233992Y431345D01*
X233841Y430980D01*
X233712Y430000D01*
X233841Y429019D01*
X234219Y428106D01*
X234821Y427321D01*
X235606Y426719D01*
X236520Y426341D01*
X237500Y426212D01*
X238480Y426341D01*
X239394Y426719D01*
X240179Y427321D01*
X240781Y428106D01*
X240932Y428471D01*
X259068D01*
X259219Y428106D01*
X259821Y427321D01*
X260606Y426719D01*
X261520Y426341D01*
X262500Y426212D01*
X263480Y426341D01*
X263845Y426492D01*
X285971Y404366D01*
Y403432D01*
X285606Y403281D01*
X284821Y402679D01*
X284219Y401894D01*
X283841Y400981D01*
X283712Y400000D01*
X283841Y399020D01*
X284219Y398106D01*
X284821Y397321D01*
X285606Y396719D01*
X286520Y396341D01*
X287500Y396212D01*
X288480Y396341D01*
X289394Y396719D01*
X290179Y397321D01*
X290781Y398106D01*
X291159Y399020D01*
X291288Y400000D01*
X291159Y400981D01*
X290781Y401894D01*
X290179Y402679D01*
X289394Y403281D01*
X289029Y403432D01*
Y405000D01*
X288913Y405585D01*
X288581Y406081D01*
X266008Y428655D01*
X266159Y429019D01*
X266288Y430000D01*
X266159Y430980D01*
X265781Y431894D01*
X265179Y432679D01*
X264394Y433281D01*
X263480Y433659D01*
X262500Y433788D01*
X261520Y433659D01*
X260606Y433281D01*
X259821Y432679D01*
X259219Y431894D01*
X259068Y431529D01*
X240932D01*
X240781Y431894D01*
X240179Y432679D01*
X239394Y433281D01*
X238480Y433659D01*
X237500Y433788D01*
X236520Y433659D01*
X236155Y433508D01*
X233881Y435781D01*
X233385Y436113D01*
X232800Y436229D01*
D02*
G37*
G36*
X287500Y433788D02*
X286520Y433659D01*
X285606Y433281D01*
X284821Y432679D01*
X284219Y431894D01*
X283841Y430980D01*
X283712Y430000D01*
X283841Y429019D01*
X284219Y428106D01*
X284821Y427321D01*
X285606Y426719D01*
X286520Y426341D01*
X287500Y426212D01*
X288480Y426341D01*
X289394Y426719D01*
X290179Y427321D01*
X290781Y428106D01*
X291159Y429019D01*
X291288Y430000D01*
X291159Y430980D01*
X290781Y431894D01*
X290179Y432679D01*
X289394Y433281D01*
X288480Y433659D01*
X287500Y433788D01*
D02*
G37*
G36*
X300000Y478987D02*
X298968Y478851D01*
X298007Y478453D01*
X297181Y477819D01*
X296547Y476993D01*
X296149Y476032D01*
X296013Y475000D01*
X296149Y473968D01*
X296341Y473504D01*
X294866Y472029D01*
X293333D01*
X293087Y472529D01*
X293453Y473007D01*
X293851Y473968D01*
X293987Y475000D01*
X293851Y476032D01*
X293453Y476993D01*
X292819Y477819D01*
X291993Y478453D01*
X291032Y478851D01*
X290000Y478987D01*
X288968Y478851D01*
X288007Y478453D01*
X287181Y477819D01*
X286547Y476993D01*
X286149Y476032D01*
X286013Y475000D01*
X286149Y473968D01*
X286547Y473007D01*
X286913Y472529D01*
X286667Y472029D01*
X273953D01*
Y478953D01*
X266047D01*
Y472029D01*
X178000D01*
X177415Y471913D01*
X176919Y471581D01*
X138845Y433508D01*
X138480Y433659D01*
X137500Y433788D01*
X136520Y433659D01*
X135606Y433281D01*
X134821Y432679D01*
X134219Y431894D01*
X133841Y430980D01*
X133712Y430000D01*
X133724Y429909D01*
X133275Y429688D01*
X131881Y431081D01*
X131385Y431413D01*
X130800Y431529D01*
X115932D01*
X115781Y431894D01*
X115179Y432679D01*
X114394Y433281D01*
X113480Y433659D01*
X112500Y433788D01*
X111520Y433659D01*
X110606Y433281D01*
X109821Y432679D01*
X109219Y431894D01*
X108841Y430980D01*
X108712Y430000D01*
X108841Y429019D01*
X109219Y428106D01*
X109821Y427321D01*
X110606Y426719D01*
X111520Y426341D01*
X112500Y426212D01*
X113480Y426341D01*
X114394Y426719D01*
X115179Y427321D01*
X115781Y428106D01*
X115932Y428471D01*
X130166D01*
X140271Y418366D01*
Y403238D01*
X139771Y402992D01*
X139394Y403281D01*
X138480Y403659D01*
X137500Y403788D01*
X136520Y403659D01*
X135606Y403281D01*
X134821Y402679D01*
X134219Y401894D01*
X134068Y401529D01*
X115932D01*
X115781Y401894D01*
X115179Y402679D01*
X114394Y403281D01*
X113480Y403659D01*
X112500Y403788D01*
X111520Y403659D01*
X110606Y403281D01*
X109821Y402679D01*
X109219Y401894D01*
X108841Y400981D01*
X108712Y400000D01*
X108841Y399020D01*
X109219Y398106D01*
X109821Y397321D01*
X110606Y396719D01*
X111520Y396341D01*
X112500Y396212D01*
X113480Y396341D01*
X114394Y396719D01*
X115179Y397321D01*
X115781Y398106D01*
X115932Y398471D01*
X134068D01*
X134219Y398106D01*
X134821Y397321D01*
X135606Y396719D01*
X136520Y396341D01*
X137500Y396212D01*
X138480Y396341D01*
X139394Y396719D01*
X140179Y397321D01*
X140781Y398106D01*
X140828Y398221D01*
X141319Y398318D01*
X160719Y378919D01*
X160852Y378829D01*
X160700Y378329D01*
X124300D01*
X123715Y378213D01*
X123219Y377881D01*
X121044Y375707D01*
X120878Y375776D01*
X120000Y375891D01*
X119122Y375776D01*
X118304Y375437D01*
X117602Y374898D01*
X117063Y374196D01*
X116724Y373378D01*
X116609Y372500D01*
X116724Y371622D01*
X117063Y370804D01*
X117602Y370102D01*
X118304Y369563D01*
X119122Y369224D01*
X120000Y369109D01*
X120878Y369224D01*
X121696Y369563D01*
X122398Y370102D01*
X122937Y370804D01*
X123276Y371622D01*
X123391Y372500D01*
X123276Y373378D01*
X123207Y373544D01*
X124934Y375271D01*
X169824D01*
X170004Y374771D01*
X169563Y374196D01*
X169224Y373378D01*
X169109Y372500D01*
X169224Y371622D01*
X169563Y370804D01*
X170102Y370102D01*
X170804Y369563D01*
X171622Y369224D01*
X172500Y369109D01*
X173378Y369224D01*
X173544Y369293D01*
X198619Y344219D01*
X199115Y343887D01*
X199700Y343771D01*
X257800D01*
X258385Y343887D01*
X258881Y344219D01*
X261155Y346492D01*
X261520Y346341D01*
X262500Y346212D01*
X263480Y346341D01*
X264394Y346719D01*
X265179Y347321D01*
X265781Y348106D01*
X266159Y349020D01*
X266288Y350000D01*
X266159Y350980D01*
X265781Y351894D01*
X265179Y352679D01*
X264394Y353281D01*
X263480Y353659D01*
X262500Y353788D01*
X261520Y353659D01*
X260606Y353281D01*
X259821Y352679D01*
X259219Y351894D01*
X258841Y350980D01*
X258712Y350000D01*
X258841Y349020D01*
X258992Y348655D01*
X257167Y346829D01*
X240316D01*
X240210Y347141D01*
X240185Y347329D01*
X240781Y348106D01*
X241159Y349020D01*
X241288Y350000D01*
X241159Y350980D01*
X240781Y351894D01*
X240179Y352679D01*
X239394Y353281D01*
X238480Y353659D01*
X237500Y353788D01*
X236520Y353659D01*
X236155Y353508D01*
X211781Y377881D01*
X211648Y377971D01*
X211800Y378471D01*
X234068D01*
X234219Y378106D01*
X234821Y377321D01*
X235606Y376719D01*
X236520Y376341D01*
X237500Y376212D01*
X238480Y376341D01*
X239394Y376719D01*
X240179Y377321D01*
X240781Y378106D01*
X241159Y379019D01*
X241288Y380000D01*
X241159Y380980D01*
X240781Y381894D01*
X240179Y382679D01*
X239394Y383281D01*
X238480Y383659D01*
X237500Y383788D01*
X236520Y383659D01*
X235606Y383281D01*
X234821Y382679D01*
X234219Y381894D01*
X234068Y381529D01*
X162434D01*
X143329Y400633D01*
Y419000D01*
X143213Y419585D01*
X142881Y420081D01*
X137188Y425775D01*
X137409Y426224D01*
X137500Y426212D01*
X138480Y426341D01*
X139394Y426719D01*
X140179Y427321D01*
X140781Y428106D01*
X141159Y429019D01*
X141288Y430000D01*
X141159Y430980D01*
X141008Y431345D01*
X178633Y468971D01*
X295500D01*
X296085Y469087D01*
X296581Y469419D01*
X298504Y471341D01*
X298968Y471149D01*
X300000Y471013D01*
X301032Y471149D01*
X301993Y471547D01*
X302819Y472181D01*
X303453Y473007D01*
X303851Y473968D01*
X303987Y475000D01*
X303851Y476032D01*
X303453Y476993D01*
X302819Y477819D01*
X301993Y478453D01*
X301032Y478851D01*
X300000Y478987D01*
D02*
G37*
G36*
X287500Y353788D02*
X286520Y353659D01*
X285606Y353281D01*
X284821Y352679D01*
X284219Y351894D01*
X283841Y350980D01*
X283712Y350000D01*
X283841Y349020D01*
X283992Y348655D01*
X275766Y340429D01*
X222100D01*
X221515Y340313D01*
X221019Y339981D01*
X205919Y324881D01*
X205587Y324385D01*
X205471Y323800D01*
Y279146D01*
X205009Y278954D01*
X192881Y291081D01*
X192385Y291413D01*
X191800Y291529D01*
X135634D01*
X123207Y303956D01*
X123276Y304122D01*
X123391Y305000D01*
X123276Y305878D01*
X122937Y306696D01*
X122398Y307398D01*
X121696Y307937D01*
X120878Y308276D01*
X120000Y308391D01*
X119122Y308276D01*
X118304Y307937D01*
X117602Y307398D01*
X117063Y306696D01*
X116724Y305878D01*
X116609Y305000D01*
X116724Y304122D01*
X117063Y303304D01*
X117602Y302602D01*
X118304Y302063D01*
X119122Y301724D01*
X120000Y301609D01*
X120878Y301724D01*
X121044Y301793D01*
X133919Y288919D01*
X134415Y288587D01*
X135000Y288471D01*
X191166D01*
X205471Y274166D01*
Y270848D01*
X205587Y270263D01*
X205919Y269767D01*
X206019Y269667D01*
X206515Y269335D01*
X207100Y269219D01*
X207894D01*
X208127Y268655D01*
X208792Y267789D01*
X209659Y267123D01*
X210669Y266705D01*
X211752Y266563D01*
X213327D01*
X214410Y266705D01*
X215420Y267123D01*
X216286Y267789D01*
X216951Y268655D01*
X217370Y269665D01*
X217512Y270748D01*
X217370Y271831D01*
X216951Y272841D01*
X216286Y273708D01*
X215420Y274373D01*
X214410Y274791D01*
X213327Y274933D01*
X211752D01*
X210669Y274791D01*
X209659Y274373D01*
X209620Y274343D01*
X208529Y275433D01*
Y277360D01*
X209029Y277607D01*
X209659Y277123D01*
X210669Y276705D01*
X211752Y276563D01*
X213327D01*
X214410Y276705D01*
X215420Y277123D01*
X216286Y277788D01*
X216951Y278655D01*
X217370Y279665D01*
X217512Y280748D01*
X217370Y281831D01*
X216951Y282841D01*
X216286Y283707D01*
X215420Y284373D01*
X214410Y284791D01*
X213327Y284933D01*
X211752D01*
X210669Y284791D01*
X209659Y284373D01*
X209029Y283889D01*
X208529Y284136D01*
Y287360D01*
X209029Y287607D01*
X209659Y287123D01*
X210669Y286705D01*
X211752Y286563D01*
X213327D01*
X214410Y286705D01*
X215420Y287123D01*
X216286Y287789D01*
X216951Y288655D01*
X217370Y289665D01*
X217512Y290748D01*
X217370Y291831D01*
X216951Y292841D01*
X216286Y293707D01*
X215420Y294373D01*
X214410Y294791D01*
X213327Y294933D01*
X211752D01*
X210669Y294791D01*
X209659Y294373D01*
X209029Y293889D01*
X208529Y294136D01*
Y297360D01*
X209029Y297607D01*
X209659Y297123D01*
X210669Y296705D01*
X211752Y296563D01*
X213327D01*
X214410Y296705D01*
X215420Y297123D01*
X216286Y297789D01*
X216951Y298655D01*
X217370Y299665D01*
X217512Y300748D01*
X217370Y301831D01*
X216951Y302841D01*
X216286Y303708D01*
X215420Y304373D01*
X214410Y304791D01*
X213327Y304933D01*
X211752D01*
X210669Y304791D01*
X209659Y304373D01*
X209029Y303889D01*
X208529Y304136D01*
Y307360D01*
X209029Y307607D01*
X209659Y307123D01*
X210669Y306705D01*
X211752Y306563D01*
X213327D01*
X214410Y306705D01*
X215420Y307123D01*
X216286Y307788D01*
X216951Y308655D01*
X217370Y309665D01*
X217512Y310748D01*
X217370Y311831D01*
X216951Y312841D01*
X216286Y313707D01*
X215420Y314373D01*
X214410Y314791D01*
X213327Y314933D01*
X211752D01*
X210669Y314791D01*
X209659Y314373D01*
X209029Y313889D01*
X208529Y314136D01*
Y315850D01*
X217437D01*
Y324150D01*
X210166D01*
X209974Y324611D01*
X222733Y337371D01*
X276400D01*
X276985Y337487D01*
X277481Y337819D01*
X286155Y346492D01*
X286520Y346341D01*
X287500Y346212D01*
X288480Y346341D01*
X289394Y346719D01*
X290179Y347321D01*
X290781Y348106D01*
X291159Y349020D01*
X291288Y350000D01*
X291159Y350980D01*
X290781Y351894D01*
X290179Y352679D01*
X289394Y353281D01*
X288480Y353659D01*
X287500Y353788D01*
D02*
G37*
G36*
X237500Y403788D02*
X236520Y403659D01*
X235606Y403281D01*
X234821Y402679D01*
X234219Y401894D01*
X233841Y400981D01*
X233712Y400000D01*
X233841Y399020D01*
X234219Y398106D01*
X234821Y397321D01*
X235606Y396719D01*
X236520Y396341D01*
X237500Y396212D01*
X238480Y396341D01*
X238845Y396492D01*
X246419Y388919D01*
X246915Y388587D01*
X247500Y388471D01*
X287367D01*
X291971Y383867D01*
Y329763D01*
X291522Y329542D01*
X291497Y329561D01*
X290775Y329861D01*
X290000Y329963D01*
X289225Y329861D01*
X288503Y329561D01*
X287883Y329086D01*
X287750Y328913D01*
X287250D01*
X287117Y329086D01*
X286497Y329561D01*
X285775Y329861D01*
X285000Y329963D01*
X284225Y329861D01*
X283503Y329561D01*
X282883Y329086D01*
X282407Y328466D01*
X282108Y327743D01*
X282006Y326969D01*
Y323031D01*
X282108Y322257D01*
X282407Y321534D01*
X282883Y320914D01*
X283471Y320463D01*
Y307534D01*
X263266Y287329D01*
X246442D01*
X246379Y287517D01*
X246318Y287829D01*
X246952Y288655D01*
X247370Y289665D01*
X247512Y290748D01*
X247370Y291831D01*
X246952Y292841D01*
X246286Y293707D01*
X245420Y294373D01*
X244410Y294791D01*
X243327Y294933D01*
X241752D01*
X240669Y294791D01*
X239659Y294373D01*
X238792Y293707D01*
X238127Y292841D01*
X237709Y291831D01*
X237567Y290748D01*
X237709Y289665D01*
X238127Y288655D01*
X238761Y287829D01*
X238700Y287517D01*
X238637Y287329D01*
X237300D01*
X236715Y287213D01*
X236219Y286881D01*
X216919Y267581D01*
X216587Y267085D01*
X216471Y266500D01*
Y264196D01*
X215971Y263950D01*
X215420Y264373D01*
X214410Y264791D01*
X213327Y264933D01*
X211752D01*
X210669Y264791D01*
X209659Y264373D01*
X208792Y263707D01*
X208127Y262841D01*
X207894Y262277D01*
X187385D01*
X175707Y273956D01*
X175776Y274122D01*
X175891Y275000D01*
X175776Y275878D01*
X175437Y276696D01*
X174898Y277398D01*
X174196Y277937D01*
X173378Y278276D01*
X172500Y278391D01*
X171622Y278276D01*
X170804Y277937D01*
X170102Y277398D01*
X169563Y276696D01*
X169224Y275878D01*
X169109Y275000D01*
X169224Y274122D01*
X169563Y273304D01*
X170102Y272602D01*
X170804Y272063D01*
X171622Y271724D01*
X172500Y271609D01*
X173378Y271724D01*
X173544Y271793D01*
X185671Y259667D01*
X186167Y259335D01*
X186752Y259219D01*
X207894D01*
X208127Y258655D01*
X208792Y257788D01*
X209260Y257429D01*
X209091Y256929D01*
X208500D01*
X207915Y256813D01*
X207419Y256481D01*
X206019Y255081D01*
X205687Y254585D01*
X205571Y254000D01*
Y248000D01*
X205687Y247415D01*
X206019Y246919D01*
X208619Y244319D01*
X208698Y244265D01*
X208772Y243827D01*
X208738Y243637D01*
X208127Y242841D01*
X207894Y242277D01*
X200872D01*
X200286Y242161D01*
X199790Y241829D01*
X198467Y240506D01*
X191453D01*
Y242929D01*
X183547D01*
Y235024D01*
X191453D01*
Y237447D01*
X199100D01*
X199685Y237563D01*
X200181Y237895D01*
X201505Y239219D01*
X207894D01*
X208127Y238655D01*
X208792Y237789D01*
X209659Y237123D01*
X210669Y236705D01*
X211752Y236563D01*
X213327D01*
X214410Y236705D01*
X215420Y237123D01*
X215971Y237546D01*
X216471Y237300D01*
Y234196D01*
X215971Y233950D01*
X215420Y234373D01*
X214410Y234791D01*
X213327Y234933D01*
X211752D01*
X210669Y234791D01*
X209659Y234373D01*
X208792Y233707D01*
X208127Y232841D01*
X207894Y232277D01*
X207224D01*
X206639Y232161D01*
X206143Y231829D01*
X188996Y214682D01*
X188532Y214875D01*
X187500Y215010D01*
X186468Y214875D01*
X186004Y214682D01*
X157105Y243581D01*
X156609Y243913D01*
X156024Y244029D01*
X123006D01*
X122937Y244196D01*
X122398Y244898D01*
X121696Y245437D01*
X120878Y245776D01*
X120000Y245891D01*
X119122Y245776D01*
X118304Y245437D01*
X117602Y244898D01*
X117063Y244196D01*
X116724Y243378D01*
X116609Y242500D01*
X116724Y241622D01*
X117063Y240804D01*
X117602Y240102D01*
X118304Y239563D01*
X119122Y239224D01*
X120000Y239109D01*
X120878Y239224D01*
X121696Y239563D01*
X122398Y240102D01*
X122937Y240804D01*
X123006Y240971D01*
X155390D01*
X183841Y212520D01*
X183649Y212055D01*
X183513Y211024D01*
X183649Y209992D01*
X184047Y209030D01*
X184681Y208205D01*
X185507Y207571D01*
X186468Y207173D01*
X187500Y207037D01*
X188532Y207173D01*
X189493Y207571D01*
X190319Y208205D01*
X190953Y209030D01*
X191351Y209992D01*
X191487Y211024D01*
X191351Y212055D01*
X191159Y212520D01*
X207501Y228861D01*
X208090Y228744D01*
X208127Y228655D01*
X208792Y227788D01*
X209659Y227123D01*
X210669Y226705D01*
X211752Y226563D01*
X213327D01*
X214410Y226705D01*
X215420Y227123D01*
X215971Y227546D01*
X216471Y227300D01*
Y224196D01*
X215971Y223950D01*
X215420Y224373D01*
X214410Y224791D01*
X213327Y224933D01*
X211752D01*
X210669Y224791D01*
X209659Y224373D01*
X208792Y223708D01*
X208127Y222841D01*
X207709Y221831D01*
X207567Y220748D01*
X207709Y219665D01*
X208127Y218655D01*
X208792Y217789D01*
X209659Y217123D01*
X210669Y216705D01*
X211752Y216563D01*
X213327D01*
X214410Y216705D01*
X215420Y217123D01*
X216286Y217789D01*
X216951Y218655D01*
X217201Y219259D01*
X217585Y219335D01*
X218081Y219667D01*
X219081Y220667D01*
X219413Y221163D01*
X219529Y221748D01*
Y243400D01*
X219413Y243985D01*
X219081Y244481D01*
X217081Y246481D01*
X216585Y246813D01*
X216000Y246929D01*
X210333D01*
X208629Y248634D01*
Y253366D01*
X209134Y253871D01*
X216000D01*
X216585Y253987D01*
X217081Y254319D01*
X219081Y256319D01*
X219413Y256815D01*
X219529Y257400D01*
Y265866D01*
X237933Y284271D01*
X238749D01*
X238909Y283797D01*
X238792Y283707D01*
X238127Y282841D01*
X237709Y281831D01*
X237567Y280748D01*
X237709Y279665D01*
X238127Y278655D01*
X238792Y277788D01*
X239659Y277123D01*
X240669Y276705D01*
X241752Y276563D01*
X243327D01*
X244410Y276705D01*
X245420Y277123D01*
X246286Y277788D01*
X246952Y278655D01*
X247370Y279665D01*
X247512Y280748D01*
X247370Y281831D01*
X246952Y282841D01*
X246286Y283707D01*
X246170Y283797D01*
X246330Y284271D01*
X263900D01*
X264485Y284387D01*
X264981Y284719D01*
X286081Y305819D01*
X286413Y306315D01*
X286529Y306900D01*
Y320463D01*
X287117Y320914D01*
X287250Y321087D01*
X287750D01*
X287883Y320914D01*
X288503Y320439D01*
X289225Y320139D01*
X290000Y320037D01*
X290775Y320139D01*
X291497Y320439D01*
X291522Y320458D01*
X291971Y320237D01*
Y314134D01*
X288919Y311081D01*
X288587Y310585D01*
X288471Y310000D01*
Y299537D01*
X287883Y299086D01*
X287750Y298913D01*
X287250D01*
X287117Y299086D01*
X286497Y299562D01*
X285775Y299861D01*
X285000Y299963D01*
X284225Y299861D01*
X283503Y299562D01*
X282883Y299086D01*
X282407Y298466D01*
X282108Y297743D01*
X282006Y296969D01*
Y293032D01*
X282108Y292257D01*
X282407Y291534D01*
X282883Y290914D01*
X283471Y290463D01*
Y263800D01*
X283587Y263215D01*
X283919Y262719D01*
X291871Y254767D01*
Y236651D01*
X291453Y236453D01*
X285710D01*
X280333Y241829D01*
X279837Y242161D01*
X279252Y242277D01*
X247185D01*
X246952Y242841D01*
X246286Y243707D01*
X245420Y244373D01*
X244410Y244791D01*
X243327Y244933D01*
X241752D01*
X240669Y244791D01*
X239659Y244373D01*
X238792Y243707D01*
X238127Y242841D01*
X237709Y241831D01*
X237567Y240748D01*
X237709Y239665D01*
X238127Y238655D01*
X238792Y237789D01*
X239130Y237529D01*
X238960Y237029D01*
X232000D01*
X231415Y236913D01*
X230919Y236581D01*
X226419Y232081D01*
X226087Y231585D01*
X225971Y231000D01*
Y216634D01*
X221615Y212277D01*
X217185D01*
X216951Y212841D01*
X216286Y213707D01*
X215420Y214373D01*
X214410Y214791D01*
X213327Y214933D01*
X211752D01*
X210669Y214791D01*
X209659Y214373D01*
X208792Y213707D01*
X208127Y212841D01*
X207709Y211831D01*
X207567Y210748D01*
X207709Y209665D01*
X208127Y208655D01*
X208792Y207788D01*
X209659Y207123D01*
X210669Y206705D01*
X211752Y206563D01*
X213327D01*
X214410Y206705D01*
X215420Y207123D01*
X216286Y207788D01*
X216951Y208655D01*
X217185Y209219D01*
X222248D01*
X222833Y209335D01*
X223329Y209667D01*
X228581Y214919D01*
X228913Y215415D01*
X229029Y216000D01*
Y230366D01*
X232633Y233971D01*
X238364D01*
X238611Y233471D01*
X238127Y232841D01*
X237709Y231831D01*
X237567Y230748D01*
X237709Y229665D01*
X238127Y228655D01*
X238792Y227788D01*
X239659Y227123D01*
X240669Y226705D01*
X241752Y226563D01*
X243327D01*
X244410Y226705D01*
X245420Y227123D01*
X246286Y227788D01*
X246952Y228655D01*
X247185Y229219D01*
X260167D01*
X266608Y222777D01*
X266401Y222277D01*
X247185D01*
X246952Y222841D01*
X246286Y223708D01*
X245420Y224373D01*
X244410Y224791D01*
X243327Y224933D01*
X241752D01*
X240669Y224791D01*
X239659Y224373D01*
X238792Y223708D01*
X238127Y222841D01*
X237709Y221831D01*
X237567Y220748D01*
X237709Y219665D01*
X238127Y218655D01*
X238792Y217789D01*
X239659Y217123D01*
X240669Y216705D01*
X241752Y216563D01*
X243327D01*
X244410Y216705D01*
X245420Y217123D01*
X246286Y217789D01*
X246952Y218655D01*
X247185Y219219D01*
X266466D01*
X274267Y211419D01*
X274763Y211087D01*
X275348Y210971D01*
X283855D01*
X284047Y210507D01*
X284681Y209681D01*
X285507Y209047D01*
X286468Y208649D01*
X287500Y208513D01*
X288532Y208649D01*
X289493Y209047D01*
X290319Y209681D01*
X290953Y210507D01*
X291351Y211468D01*
X291487Y212500D01*
X291351Y213532D01*
X290953Y214493D01*
X290319Y215319D01*
X289493Y215953D01*
X288532Y216351D01*
X287500Y216487D01*
X286468Y216351D01*
X285507Y215953D01*
X284681Y215319D01*
X284047Y214493D01*
X283855Y214029D01*
X275981D01*
X269540Y220471D01*
X269747Y220971D01*
X283855D01*
X284047Y220507D01*
X284681Y219681D01*
X285507Y219047D01*
X286468Y218649D01*
X287500Y218513D01*
X288532Y218649D01*
X289493Y219047D01*
X290319Y219681D01*
X290953Y220507D01*
X291351Y221468D01*
X291487Y222500D01*
X291351Y223532D01*
X290953Y224493D01*
X290319Y225319D01*
X289861Y225671D01*
X290031Y226171D01*
X291100D01*
X291685Y226287D01*
X292181Y226619D01*
X294481Y228919D01*
X294813Y229415D01*
X294929Y230000D01*
Y250635D01*
X295429Y250734D01*
X295524Y250507D01*
X296157Y249681D01*
X296983Y249047D01*
X297944Y248649D01*
X298976Y248513D01*
X300008Y248649D01*
X300970Y249047D01*
X301796Y249681D01*
X302429Y250507D01*
X302827Y251468D01*
X302963Y252500D01*
X302827Y253532D01*
X302429Y254493D01*
X301796Y255319D01*
X300970Y255953D01*
X300008Y256351D01*
X298976Y256487D01*
X297944Y256351D01*
X296983Y255953D01*
X296157Y255319D01*
X295524Y254493D01*
X295429Y254266D01*
X294929Y254365D01*
Y255400D01*
X294813Y255985D01*
X294481Y256481D01*
X286529Y264434D01*
Y290463D01*
X287117Y290914D01*
X287250Y291087D01*
X287750D01*
X287883Y290914D01*
X288503Y290439D01*
X289225Y290139D01*
X290000Y290037D01*
X290775Y290139D01*
X291497Y290439D01*
X292117Y290914D01*
X292593Y291534D01*
X292892Y292257D01*
X292994Y293032D01*
Y296969D01*
X292892Y297743D01*
X292593Y298466D01*
X292117Y299086D01*
X291529Y299537D01*
Y309366D01*
X294581Y312419D01*
X294913Y312915D01*
X295029Y313500D01*
Y384500D01*
X294913Y385085D01*
X294581Y385581D01*
X289081Y391081D01*
X288585Y391413D01*
X288000Y391529D01*
X248133D01*
X241008Y398655D01*
X241159Y399020D01*
X241288Y400000D01*
X241159Y400981D01*
X240781Y401894D01*
X240179Y402679D01*
X239394Y403281D01*
X238480Y403659D01*
X237500Y403788D01*
D02*
G37*
G36*
X262500Y383788D02*
X261520Y383659D01*
X260606Y383281D01*
X259821Y382679D01*
X259219Y381894D01*
X258841Y380980D01*
X258712Y380000D01*
X258841Y379019D01*
X259219Y378106D01*
X259821Y377321D01*
X260606Y376719D01*
X261520Y376341D01*
X262500Y376212D01*
X263480Y376341D01*
X264394Y376719D01*
X265179Y377321D01*
X265781Y378106D01*
X266159Y379019D01*
X266288Y380000D01*
X266159Y380980D01*
X265781Y381894D01*
X265179Y382679D01*
X264394Y383281D01*
X263480Y383659D01*
X262500Y383788D01*
D02*
G37*
G36*
X187500Y403788D02*
X186520Y403659D01*
X185606Y403281D01*
X184821Y402679D01*
X184219Y401894D01*
X183841Y400981D01*
X183712Y400000D01*
X183841Y399020D01*
X184219Y398106D01*
X184821Y397321D01*
X185606Y396719D01*
X186520Y396341D01*
X187500Y396212D01*
X188480Y396341D01*
X189394Y396719D01*
X190179Y397321D01*
X190781Y398106D01*
X191159Y399020D01*
X191288Y400000D01*
X191159Y400981D01*
X190781Y401894D01*
X190179Y402679D01*
X189394Y403281D01*
X188480Y403659D01*
X187500Y403788D01*
D02*
G37*
G36*
X162500D02*
X161520Y403659D01*
X160606Y403281D01*
X159821Y402679D01*
X159219Y401894D01*
X158841Y400981D01*
X158712Y400000D01*
X158841Y399020D01*
X159219Y398106D01*
X159821Y397321D01*
X160606Y396719D01*
X161520Y396341D01*
X162500Y396212D01*
X163480Y396341D01*
X164394Y396719D01*
X165179Y397321D01*
X165781Y398106D01*
X166159Y399020D01*
X166288Y400000D01*
X166159Y400981D01*
X165781Y401894D01*
X165179Y402679D01*
X164394Y403281D01*
X163480Y403659D01*
X162500Y403788D01*
D02*
G37*
G36*
X287500Y383788D02*
X286520Y383659D01*
X285606Y383281D01*
X284821Y382679D01*
X284219Y381894D01*
X283841Y380980D01*
X283712Y380000D01*
X283841Y379019D01*
X284219Y378106D01*
X284821Y377321D01*
X285606Y376719D01*
X286520Y376341D01*
X287500Y376212D01*
X288480Y376341D01*
X289394Y376719D01*
X290179Y377321D01*
X290781Y378106D01*
X291159Y379019D01*
X291288Y380000D01*
X291159Y380980D01*
X290781Y381894D01*
X290179Y382679D01*
X289394Y383281D01*
X288480Y383659D01*
X287500Y383788D01*
D02*
G37*
%LPD*%
G36*
X233992Y351345D02*
X233841Y350980D01*
X233712Y350000D01*
X233841Y349020D01*
X234219Y348106D01*
X234815Y347329D01*
X234790Y347141D01*
X234684Y346829D01*
X200333D01*
X175707Y371456D01*
X175776Y371622D01*
X175891Y372500D01*
X175776Y373378D01*
X175437Y374196D01*
X174996Y374771D01*
X175176Y375271D01*
X210067D01*
X233992Y351345D01*
D02*
G37*
G36*
X283547Y234290D02*
Y229229D01*
X269634D01*
X262281Y236581D01*
X261785Y236913D01*
X261200Y237029D01*
X246118D01*
X245949Y237529D01*
X246286Y237789D01*
X246952Y238655D01*
X247185Y239219D01*
X278619D01*
X283547Y234290D01*
D02*
G37*
G36*
X267919Y226619D02*
X268415Y226287D01*
X269000Y226171D01*
X284969D01*
X285139Y225671D01*
X284681Y225319D01*
X284047Y224493D01*
X283855Y224029D01*
X269682D01*
X261881Y231829D01*
X261385Y232161D01*
X260800Y232277D01*
X247185D01*
X246952Y232841D01*
X246468Y233471D01*
X246715Y233971D01*
X260566D01*
X267919Y226619D01*
D02*
G37*
D10*
X112500Y400000D02*
X137500D01*
X237500Y430000D02*
X262500D01*
X242539Y230748D02*
X260800D01*
X269048Y222500D01*
X287500D01*
X187500Y238976D02*
X199100D01*
X200872Y240748D01*
X212539D01*
X120000Y342500D02*
X172500D01*
X177500Y480000D02*
X227500D01*
X130000D02*
X177500D01*
X275000D02*
X280000Y475000D01*
X227500Y480000D02*
X275000D01*
X137500Y430000D02*
X178000Y470500D01*
X295500D01*
X300000Y475000D01*
X227500Y260748D02*
X242539D01*
X217500Y250748D02*
X227500Y260748D01*
X212539Y250748D02*
X217500D01*
X172500Y275000D02*
X186752Y260748D01*
X212539D01*
X120000Y305000D02*
X135000Y290000D01*
X191800D01*
X112500Y430000D02*
X130800D01*
X141800Y419000D01*
Y400000D02*
Y419000D01*
Y400000D02*
X161800Y380000D01*
X237500D01*
X207224Y230748D02*
X212539D01*
X187500Y211024D02*
X207224Y230748D01*
X242539Y260748D02*
X276000D01*
X280000Y264748D01*
Y295000D01*
X285000Y263800D02*
Y295000D01*
Y263800D02*
X293400Y255400D01*
Y230000D02*
Y255400D01*
X291100Y227700D02*
X293400Y230000D01*
X269000Y227700D02*
X291100D01*
X261200Y235500D02*
X269000Y227700D01*
X232000Y235500D02*
X261200D01*
X227500Y231000D02*
X232000Y235500D01*
X227500Y216000D02*
Y231000D01*
X222248Y210748D02*
X227500Y216000D01*
X212539Y210748D02*
X222248D01*
X279252Y240748D02*
X287500Y232500D01*
X242539Y240748D02*
X279252D01*
X285000Y306900D02*
Y325000D01*
X263900Y285800D02*
X285000Y306900D01*
X237300Y285800D02*
X263900D01*
X218000Y266500D02*
X237300Y285800D01*
X218000Y257400D02*
Y266500D01*
X216000Y255400D02*
X218000Y257400D01*
X208500Y255400D02*
X216000D01*
X207100Y254000D02*
X208500Y255400D01*
X207100Y248000D02*
Y254000D01*
Y248000D02*
X209700Y245400D01*
X216000D01*
X218000Y243400D01*
Y221748D02*
Y243400D01*
X217000Y220748D02*
X218000Y221748D01*
X212539Y220748D02*
X217000D01*
X120000Y242500D02*
X156024D01*
X187500Y211024D01*
X276400Y338900D02*
X287500Y350000D01*
X222100Y338900D02*
X276400D01*
X207000Y323800D02*
X222100Y338900D01*
X207000Y270848D02*
X207100Y270748D01*
X232800Y434700D02*
X237500Y430000D01*
X192200Y434700D02*
X232800D01*
X187500Y430000D02*
X192200Y434700D01*
X287500Y400000D02*
Y405000D01*
X262500Y430000D02*
X287500Y405000D01*
X242539Y200748D02*
X265100D01*
X273348Y192500D01*
X287500D01*
X237500Y400000D02*
X247500Y390000D01*
X288000D01*
X293500Y384500D01*
Y313500D02*
Y384500D01*
X290000Y310000D02*
X293500Y313500D01*
X290000Y295000D02*
Y310000D01*
X172500Y372500D02*
X199700Y345300D01*
X257800D01*
X262500Y350000D01*
X120000Y372500D02*
X124300Y376800D01*
X210700D01*
X237500Y350000D01*
X242539Y190748D02*
X250787Y182500D01*
X287500D01*
X242539Y210748D02*
X266100D01*
X274348Y202500D01*
X287500D01*
X242539Y220748D02*
X267100D01*
X275348Y212500D01*
X287500D01*
X207800Y425300D02*
X212500Y430000D01*
X167200Y425300D02*
X207800D01*
X162500Y430000D02*
X167200Y425300D01*
X207000Y270848D02*
Y274800D01*
Y323800D01*
X191800Y290000D02*
X207000Y274800D01*
X211052Y270748D01*
X207100D02*
X211052D01*
X212539D01*
D11*
X290000Y325000D02*
D03*
X280000D02*
D03*
X290000Y295000D02*
D03*
X280000D02*
D03*
D12*
X285000Y325000D02*
D03*
Y295000D02*
D03*
D13*
X271024Y272500D02*
D03*
Y252500D02*
D03*
X270000Y475000D02*
D03*
D14*
X298976Y272500D02*
D03*
Y252500D02*
D03*
X187500Y211024D02*
D03*
X287500Y222500D02*
D03*
Y212500D02*
D03*
Y202500D02*
D03*
Y192500D02*
D03*
Y182500D02*
D03*
Y172500D02*
D03*
Y162500D02*
D03*
X300000Y475000D02*
D03*
X290000D02*
D03*
X280000D02*
D03*
D15*
X187500Y238976D02*
D03*
X287500Y232500D02*
D03*
D16*
X120000Y242500D02*
D03*
Y212500D02*
D03*
X172500Y305000D02*
D03*
Y275000D02*
D03*
X140000Y180000D02*
D03*
X170000D02*
D03*
X120000Y305000D02*
D03*
Y275000D02*
D03*
X172500Y372500D02*
D03*
Y342500D02*
D03*
X120000Y372500D02*
D03*
Y342500D02*
D03*
D17*
X227500Y480000D02*
D03*
X177500D02*
D03*
X130000D02*
D03*
D18*
X227500Y460000D02*
D03*
X177500D02*
D03*
X130000D02*
D03*
D19*
X242539Y190748D02*
D03*
Y200748D02*
D03*
Y210748D02*
D03*
Y220748D02*
D03*
Y230748D02*
D03*
Y240748D02*
D03*
Y250748D02*
D03*
Y260748D02*
D03*
Y270748D02*
D03*
Y280748D02*
D03*
Y290748D02*
D03*
Y300748D02*
D03*
Y310748D02*
D03*
Y320748D02*
D03*
X212539Y190748D02*
D03*
Y200748D02*
D03*
Y210748D02*
D03*
Y220748D02*
D03*
Y230748D02*
D03*
Y240748D02*
D03*
Y250748D02*
D03*
Y260748D02*
D03*
Y270748D02*
D03*
Y280748D02*
D03*
Y290748D02*
D03*
Y300748D02*
D03*
Y310748D02*
D03*
D20*
X212500Y320000D02*
D03*
D21*
Y400000D02*
D03*
Y430000D02*
D03*
X187500D02*
D03*
Y400000D02*
D03*
X162500Y430000D02*
D03*
Y400000D02*
D03*
X137500D02*
D03*
Y430000D02*
D03*
X237500D02*
D03*
Y400000D02*
D03*
X287500D02*
D03*
Y430000D02*
D03*
X262500D02*
D03*
Y400000D02*
D03*
X112500D02*
D03*
Y430000D02*
D03*
X287500Y350000D02*
D03*
Y380000D02*
D03*
X262500Y350000D02*
D03*
Y380000D02*
D03*
X237500Y350000D02*
D03*
Y380000D02*
D03*
M02*
