M48
;Layer_Color=9474304
;FILE_FORMAT=2:4
INCH,TZ
;TYPE=PLATED
T1F00S00C0.0276
T2F00S00C0.0335
T3F00S00C0.0354
T4F00S00C0.0433
%
T01
X17000Y18000
X17250Y27500
Y30500
X12000
Y27500
Y24250
Y21250
X14000Y18000
X12000Y34250
Y37250
X17250
Y34250
T02
X11250Y40000
X13750
Y43000
X11250
X16250
X18750
X21250
X23750
X26250
X28750
Y40000
Y38000
X26250
Y40000
X23750
Y38000
Y35000
X26250
X28750
X21250Y40000
X18750
X16250
T03
X18750Y21102
Y23898
X27102Y25250
Y27250
X29898
Y25250
X28750Y23250
Y22250
Y21250
Y20250
Y19250
Y18250
Y17250
Y16250
X29000Y29500
X28500
X28000
Y32500
X28500
X29000
Y47500
X30000
X28000
X27000
T04
X21254Y19075
Y20075
Y21075
Y22075
Y23075
Y24075
Y25075
Y26075
Y27075
Y28075
Y29075
Y30075
Y31075
X24254
Y30075
Y29075
Y28075
Y27075
Y26075
Y25075
Y24075
Y23075
Y22075
Y21075
Y20075
Y19075
X13000Y46000
X17750
X22750
X24254Y32075
X21250Y32000
X22750Y48000
X17750
X13000
M30
