G04 Layer_Color=128*
%FSLAX25Y25*%
%MOIN*%
G70*
G01*
G75*
%ADD39C,0.00500*%
D39*
X288228Y325000D02*
X291772D01*
X290000Y323228D02*
Y326772D01*
X283228Y325000D02*
X286772D01*
X285000Y323228D02*
Y326772D01*
X278228Y325000D02*
X281772D01*
X280000Y323228D02*
Y326772D01*
X288228Y295000D02*
X291772D01*
X290000Y293228D02*
Y296772D01*
X283228Y295000D02*
X286772D01*
X285000Y293228D02*
Y296772D01*
X278228Y295000D02*
X281772D01*
X280000Y293228D02*
Y296772D01*
X269252Y272500D02*
X272795D01*
X271024Y270728D02*
Y274272D01*
X297205Y272500D02*
X300748D01*
X298976Y270728D02*
Y274272D01*
X269252Y252500D02*
X272795D01*
X271024Y250728D02*
Y254272D01*
X297205Y252500D02*
X300748D01*
X298976Y250728D02*
Y254272D01*
X185728Y238976D02*
X189272D01*
X187500Y237205D02*
Y240748D01*
X185728Y211024D02*
X189272D01*
X187500Y209252D02*
Y212795D01*
X118622Y242500D02*
X121378D01*
X120000Y241122D02*
Y243878D01*
X118622Y212500D02*
X121378D01*
X120000Y211122D02*
Y213878D01*
X225335Y480000D02*
X229665D01*
X227500Y477835D02*
Y482165D01*
X225335Y460000D02*
X229665D01*
X227500Y457835D02*
Y462165D01*
X175335Y480000D02*
X179665D01*
X177500Y477835D02*
Y482165D01*
X175335Y460000D02*
X179665D01*
X177500Y457835D02*
Y462165D01*
X127835Y480000D02*
X132165D01*
X130000Y477835D02*
Y482165D01*
X127835Y460000D02*
X132165D01*
X130000Y457835D02*
Y462165D01*
X285728Y232500D02*
X289272D01*
X287500Y230728D02*
Y234272D01*
X285728Y222500D02*
X289272D01*
X287500Y220728D02*
Y224272D01*
X285728Y212500D02*
X289272D01*
X287500Y210728D02*
Y214272D01*
X285728Y202500D02*
X289272D01*
X287500Y200728D02*
Y204272D01*
X285728Y192500D02*
X289272D01*
X287500Y190728D02*
Y194272D01*
X285728Y182500D02*
X289272D01*
X287500Y180728D02*
Y184272D01*
X285728Y172500D02*
X289272D01*
X287500Y170728D02*
Y174272D01*
X285728Y162500D02*
X289272D01*
X287500Y160728D02*
Y164272D01*
X298228Y475000D02*
X301772D01*
X300000Y473228D02*
Y476772D01*
X288228Y475000D02*
X291772D01*
X290000Y473228D02*
Y476772D01*
X278228Y475000D02*
X281772D01*
X280000Y473228D02*
Y476772D01*
X268228Y475000D02*
X271772D01*
X270000Y473228D02*
Y476772D01*
X240374Y190748D02*
X244705D01*
X242539Y188583D02*
Y192913D01*
X240374Y200748D02*
X244705D01*
X242539Y198583D02*
Y202913D01*
X240374Y210748D02*
X244705D01*
X242539Y208583D02*
Y212913D01*
X240374Y220748D02*
X244705D01*
X242539Y218583D02*
Y222913D01*
X240374Y230748D02*
X244705D01*
X242539Y228583D02*
Y232913D01*
X240374Y240748D02*
X244705D01*
X242539Y238583D02*
Y242913D01*
X240374Y250748D02*
X244705D01*
X242539Y248583D02*
Y252913D01*
X240374Y260748D02*
X244705D01*
X242539Y258583D02*
Y262913D01*
X240374Y270748D02*
X244705D01*
X242539Y268583D02*
Y272913D01*
X240374Y280748D02*
X244705D01*
X242539Y278583D02*
Y282913D01*
X240374Y290748D02*
X244705D01*
X242539Y288583D02*
Y292913D01*
X240374Y300748D02*
X244705D01*
X242539Y298583D02*
Y302913D01*
X240374Y310748D02*
X244705D01*
X242539Y308583D02*
Y312913D01*
X240374Y320748D02*
X244705D01*
X242539Y318583D02*
Y322913D01*
X210374Y190748D02*
X214705D01*
X212539Y188583D02*
Y192913D01*
X210374Y200748D02*
X214705D01*
X212539Y198583D02*
Y202913D01*
X210374Y210748D02*
X214705D01*
X212539Y208583D02*
Y212913D01*
X210374Y220748D02*
X214705D01*
X212539Y218583D02*
Y222913D01*
X210374Y230748D02*
X214705D01*
X212539Y228583D02*
Y232913D01*
X210374Y240748D02*
X214705D01*
X212539Y238583D02*
Y242913D01*
X210374Y250748D02*
X214705D01*
X212539Y248583D02*
Y252913D01*
X210374Y260748D02*
X214705D01*
X212539Y258583D02*
Y262913D01*
X210374Y270748D02*
X214705D01*
X212539Y268583D02*
Y272913D01*
X210374Y280748D02*
X214705D01*
X212539Y278583D02*
Y282913D01*
X210374Y290748D02*
X214705D01*
X212539Y288583D02*
Y292913D01*
X210374Y300748D02*
X214705D01*
X212539Y298583D02*
Y302913D01*
X210374Y310748D02*
X214705D01*
X212539Y308583D02*
Y312913D01*
X210335Y320000D02*
X214665D01*
X212500Y317835D02*
Y322165D01*
X171122Y305000D02*
X173878D01*
X172500Y303622D02*
Y306378D01*
X171122Y275000D02*
X173878D01*
X172500Y273622D02*
Y276378D01*
X210827Y400000D02*
X214173D01*
X212500Y398327D02*
Y401673D01*
X210827Y430000D02*
X214173D01*
X212500Y428327D02*
Y431673D01*
X185827Y430000D02*
X189173D01*
X187500Y428327D02*
Y431673D01*
X185827Y400000D02*
X189173D01*
X187500Y398327D02*
Y401673D01*
X160827Y430000D02*
X164173D01*
X162500Y428327D02*
Y431673D01*
X160827Y400000D02*
X164173D01*
X162500Y398327D02*
Y401673D01*
X138622Y180000D02*
X141378D01*
X140000Y178622D02*
Y181378D01*
X168622Y180000D02*
X171378D01*
X170000Y178622D02*
Y181378D01*
X135827Y400000D02*
X139173D01*
X137500Y398327D02*
Y401673D01*
X135827Y430000D02*
X139173D01*
X137500Y428327D02*
Y431673D01*
X235827Y430000D02*
X239173D01*
X237500Y428327D02*
Y431673D01*
X235827Y400000D02*
X239173D01*
X237500Y398327D02*
Y401673D01*
X285827Y400000D02*
X289173D01*
X287500Y398327D02*
Y401673D01*
X285827Y430000D02*
X289173D01*
X287500Y428327D02*
Y431673D01*
X260827Y430000D02*
X264173D01*
X262500Y428327D02*
Y431673D01*
X260827Y400000D02*
X264173D01*
X262500Y398327D02*
Y401673D01*
X110827Y400000D02*
X114173D01*
X112500Y398327D02*
Y401673D01*
X110827Y430000D02*
X114173D01*
X112500Y428327D02*
Y431673D01*
X285827Y350000D02*
X289173D01*
X287500Y348327D02*
Y351673D01*
X285827Y380000D02*
X289173D01*
X287500Y378327D02*
Y381673D01*
X260827Y350000D02*
X264173D01*
X262500Y348327D02*
Y351673D01*
X260827Y380000D02*
X264173D01*
X262500Y378327D02*
Y381673D01*
X235827Y350000D02*
X239173D01*
X237500Y348327D02*
Y351673D01*
X235827Y380000D02*
X239173D01*
X237500Y378327D02*
Y381673D01*
X118622Y305000D02*
X121378D01*
X120000Y303622D02*
Y306378D01*
X118622Y275000D02*
X121378D01*
X120000Y273622D02*
Y276378D01*
X171122Y372500D02*
X173878D01*
X172500Y371122D02*
Y373878D01*
X171122Y342500D02*
X173878D01*
X172500Y341122D02*
Y343878D01*
X118622Y372500D02*
X121378D01*
X120000Y371122D02*
Y373878D01*
X118622Y342500D02*
X121378D01*
X120000Y341122D02*
Y343878D01*
M02*
